G04 #@! TF.GenerationSoftware,KiCad,Pcbnew,(5.0.0)*
G04 #@! TF.CreationDate,2018-09-25T23:14:14-03:00*
G04 #@! TF.ProjectId,FranzMakeyDIY,4672616E7A4D616B65794449592E6B69,rev?*
G04 #@! TF.SameCoordinates,Original*
G04 #@! TF.FileFunction,Legend,Bot*
G04 #@! TF.FilePolarity,Positive*
%FSLAX46Y46*%
G04 Gerber Fmt 4.6, Leading zero omitted, Abs format (unit mm)*
G04 Created by KiCad (PCBNEW (5.0.0)) date 09/25/18 23:14:14*
%MOMM*%
%LPD*%
G01*
G04 APERTURE LIST*
%ADD10C,0.150000*%
G04 APERTURE END LIST*
D10*
G36*
X174879000Y-116408200D02*
X187833000Y-116408200D01*
X187833000Y-114122200D01*
X174879000Y-114122200D01*
X174879000Y-116408200D01*
G37*
X174879000Y-116408200D02*
X187833000Y-116408200D01*
X187833000Y-114122200D01*
X174879000Y-114122200D01*
X174879000Y-116408200D01*
G36*
X174853600Y-109423200D02*
X187807600Y-109423200D01*
X187807600Y-107137200D01*
X174853600Y-107137200D01*
X174853600Y-109423200D01*
G37*
X174853600Y-109423200D02*
X187807600Y-109423200D01*
X187807600Y-107137200D01*
X174853600Y-107137200D01*
X174853600Y-109423200D01*
G36*
X174726600Y-102438200D02*
X187680600Y-102438200D01*
X187680600Y-100152200D01*
X174726600Y-100152200D01*
X174726600Y-102438200D01*
G37*
X174726600Y-102438200D02*
X187680600Y-102438200D01*
X187680600Y-100152200D01*
X174726600Y-100152200D01*
X174726600Y-102438200D01*
G36*
X174853600Y-95453200D02*
X187807600Y-95453200D01*
X187807600Y-93167200D01*
X174853600Y-93167200D01*
X174853600Y-95453200D01*
G37*
X174853600Y-95453200D02*
X187807600Y-95453200D01*
X187807600Y-93167200D01*
X174853600Y-93167200D01*
X174853600Y-95453200D01*
M02*
