G04 #@! TF.GenerationSoftware,KiCad,Pcbnew,(5.0.0)*
G04 #@! TF.CreationDate,2018-09-25T23:14:14-03:00*
G04 #@! TF.ProjectId,FranzMakeyDIY,4672616E7A4D616B65794449592E6B69,rev?*
G04 #@! TF.SameCoordinates,Original*
G04 #@! TF.FileFunction,Soldermask,Bot*
G04 #@! TF.FilePolarity,Negative*
%FSLAX46Y46*%
G04 Gerber Fmt 4.6, Leading zero omitted, Abs format (unit mm)*
G04 Created by KiCad (PCBNEW (5.0.0)) date 09/25/18 23:14:14*
%MOMM*%
%LPD*%
G01*
G04 APERTURE LIST*
%ADD10C,3.600000*%
%ADD11O,2.800000X2.000000*%
%ADD12R,2.800000X2.000000*%
%ADD13C,2.082800*%
%ADD14C,1.879600*%
%ADD15R,2.100000X2.100000*%
%ADD16C,2.100000*%
%ADD17C,3.900000*%
%ADD18C,2.000000*%
%ADD19R,2.000000X2.000000*%
%ADD20C,0.100000*%
%ADD21C,4.400000*%
G04 APERTURE END LIST*
D10*
G04 #@! TO.C,REF\002A\002A*
X167500000Y-92000000D03*
G04 #@! TD*
G04 #@! TO.C,REF\002A\002A*
X127500000Y-92000000D03*
G04 #@! TD*
G04 #@! TO.C,REF\002A\002A*
X167500000Y-117500000D03*
G04 #@! TD*
D11*
G04 #@! TO.C,IC1*
X156210000Y-101600000D03*
X148590000Y-109220000D03*
X156210000Y-104140000D03*
X148590000Y-106680000D03*
X156210000Y-106680000D03*
X148590000Y-104140000D03*
X156210000Y-109220000D03*
D12*
X148590000Y-101600000D03*
G04 #@! TD*
D13*
G04 #@! TO.C,D2*
X134620000Y-100330000D03*
X142240000Y-100330000D03*
G04 #@! TD*
G04 #@! TO.C,D1*
X134620000Y-97790000D03*
X142240000Y-97790000D03*
G04 #@! TD*
D14*
G04 #@! TO.C,C1*
X156210000Y-96520000D03*
X153670000Y-96520000D03*
G04 #@! TD*
D13*
G04 #@! TO.C,R1*
X144780000Y-103505000D03*
X134620000Y-103505000D03*
G04 #@! TD*
G04 #@! TO.C,R2*
X144780000Y-106680000D03*
X134620000Y-106680000D03*
G04 #@! TD*
G04 #@! TO.C,R3*
X134620000Y-109855000D03*
X144780000Y-109855000D03*
G04 #@! TD*
G04 #@! TO.C,R5*
X159385000Y-109855000D03*
X169545000Y-109855000D03*
G04 #@! TD*
G04 #@! TO.C,R4*
X144780000Y-113030000D03*
X134620000Y-113030000D03*
G04 #@! TD*
D14*
G04 #@! TO.C,ON*
X152400000Y-113665000D03*
X152400000Y-116205000D03*
G04 #@! TD*
D13*
G04 #@! TO.C,R6*
X169545000Y-106680000D03*
X159385000Y-106680000D03*
G04 #@! TD*
G04 #@! TO.C,R7*
X159385000Y-103505000D03*
X169545000Y-103505000D03*
G04 #@! TD*
G04 #@! TO.C,R8*
X169545000Y-100330000D03*
X159385000Y-100330000D03*
G04 #@! TD*
D15*
G04 #@! TO.C,J6*
X130175000Y-106680000D03*
D16*
X130175000Y-104180000D03*
X128175000Y-104180000D03*
X128175000Y-106680000D03*
D17*
X125465000Y-111450000D03*
X125465000Y-99410000D03*
G04 #@! TD*
D18*
G04 #@! TO.C,C2*
X147360000Y-96520000D03*
D19*
X149860000Y-96520000D03*
G04 #@! TD*
D20*
G04 #@! TO.C,0*
G36*
X186809383Y-116551356D02*
X186937519Y-116570363D01*
X187063176Y-116601839D01*
X187185142Y-116645479D01*
X187302244Y-116700864D01*
X187413353Y-116767460D01*
X187517399Y-116844626D01*
X187613381Y-116931619D01*
X187700374Y-117027601D01*
X187777540Y-117131647D01*
X187844136Y-117242756D01*
X187899521Y-117359858D01*
X187943161Y-117481824D01*
X187974637Y-117607481D01*
X187993644Y-117735617D01*
X188000000Y-117865000D01*
X188000000Y-119625000D01*
X187993644Y-119754383D01*
X187974637Y-119882519D01*
X187943161Y-120008176D01*
X187899521Y-120130142D01*
X187844136Y-120247244D01*
X187777540Y-120358353D01*
X187700374Y-120462399D01*
X187613381Y-120558381D01*
X187517399Y-120645374D01*
X187413353Y-120722540D01*
X187302244Y-120789136D01*
X187185142Y-120844521D01*
X187063176Y-120888161D01*
X186937519Y-120919637D01*
X186809383Y-120938644D01*
X186680000Y-120945000D01*
X180920000Y-120945000D01*
X180790617Y-120938644D01*
X180662481Y-120919637D01*
X180536824Y-120888161D01*
X180414858Y-120844521D01*
X180297756Y-120789136D01*
X180186647Y-120722540D01*
X180082601Y-120645374D01*
X179986619Y-120558381D01*
X179899626Y-120462399D01*
X179822460Y-120358353D01*
X179755864Y-120247244D01*
X179700479Y-120130142D01*
X179656839Y-120008176D01*
X179625363Y-119882519D01*
X179606356Y-119754383D01*
X179600000Y-119625000D01*
X179600000Y-117865000D01*
X179606356Y-117735617D01*
X179625363Y-117607481D01*
X179656839Y-117481824D01*
X179700479Y-117359858D01*
X179755864Y-117242756D01*
X179822460Y-117131647D01*
X179899626Y-117027601D01*
X179986619Y-116931619D01*
X180082601Y-116844626D01*
X180186647Y-116767460D01*
X180297756Y-116700864D01*
X180414858Y-116645479D01*
X180536824Y-116601839D01*
X180662481Y-116570363D01*
X180790617Y-116551356D01*
X180920000Y-116545000D01*
X186680000Y-116545000D01*
X186809383Y-116551356D01*
X186809383Y-116551356D01*
G37*
D21*
X183800000Y-118745000D03*
D20*
G36*
X181809383Y-116551356D02*
X181937519Y-116570363D01*
X182063176Y-116601839D01*
X182185142Y-116645479D01*
X182302244Y-116700864D01*
X182413353Y-116767460D01*
X182517399Y-116844626D01*
X182613381Y-116931619D01*
X182700374Y-117027601D01*
X182777540Y-117131647D01*
X182844136Y-117242756D01*
X182899521Y-117359858D01*
X182943161Y-117481824D01*
X182974637Y-117607481D01*
X182993644Y-117735617D01*
X183000000Y-117865000D01*
X183000000Y-119625000D01*
X182993644Y-119754383D01*
X182974637Y-119882519D01*
X182943161Y-120008176D01*
X182899521Y-120130142D01*
X182844136Y-120247244D01*
X182777540Y-120358353D01*
X182700374Y-120462399D01*
X182613381Y-120558381D01*
X182517399Y-120645374D01*
X182413353Y-120722540D01*
X182302244Y-120789136D01*
X182185142Y-120844521D01*
X182063176Y-120888161D01*
X181937519Y-120919637D01*
X181809383Y-120938644D01*
X181680000Y-120945000D01*
X175920000Y-120945000D01*
X175790617Y-120938644D01*
X175662481Y-120919637D01*
X175536824Y-120888161D01*
X175414858Y-120844521D01*
X175297756Y-120789136D01*
X175186647Y-120722540D01*
X175082601Y-120645374D01*
X174986619Y-120558381D01*
X174899626Y-120462399D01*
X174822460Y-120358353D01*
X174755864Y-120247244D01*
X174700479Y-120130142D01*
X174656839Y-120008176D01*
X174625363Y-119882519D01*
X174606356Y-119754383D01*
X174600000Y-119625000D01*
X174600000Y-117865000D01*
X174606356Y-117735617D01*
X174625363Y-117607481D01*
X174656839Y-117481824D01*
X174700479Y-117359858D01*
X174755864Y-117242756D01*
X174822460Y-117131647D01*
X174899626Y-117027601D01*
X174986619Y-116931619D01*
X175082601Y-116844626D01*
X175186647Y-116767460D01*
X175297756Y-116700864D01*
X175414858Y-116645479D01*
X175536824Y-116601839D01*
X175662481Y-116570363D01*
X175790617Y-116551356D01*
X175920000Y-116545000D01*
X181680000Y-116545000D01*
X181809383Y-116551356D01*
X181809383Y-116551356D01*
G37*
D21*
X178800000Y-118745000D03*
G04 #@! TD*
D20*
G04 #@! TO.C,1*
G36*
X181809383Y-109566356D02*
X181937519Y-109585363D01*
X182063176Y-109616839D01*
X182185142Y-109660479D01*
X182302244Y-109715864D01*
X182413353Y-109782460D01*
X182517399Y-109859626D01*
X182613381Y-109946619D01*
X182700374Y-110042601D01*
X182777540Y-110146647D01*
X182844136Y-110257756D01*
X182899521Y-110374858D01*
X182943161Y-110496824D01*
X182974637Y-110622481D01*
X182993644Y-110750617D01*
X183000000Y-110880000D01*
X183000000Y-112640000D01*
X182993644Y-112769383D01*
X182974637Y-112897519D01*
X182943161Y-113023176D01*
X182899521Y-113145142D01*
X182844136Y-113262244D01*
X182777540Y-113373353D01*
X182700374Y-113477399D01*
X182613381Y-113573381D01*
X182517399Y-113660374D01*
X182413353Y-113737540D01*
X182302244Y-113804136D01*
X182185142Y-113859521D01*
X182063176Y-113903161D01*
X181937519Y-113934637D01*
X181809383Y-113953644D01*
X181680000Y-113960000D01*
X175920000Y-113960000D01*
X175790617Y-113953644D01*
X175662481Y-113934637D01*
X175536824Y-113903161D01*
X175414858Y-113859521D01*
X175297756Y-113804136D01*
X175186647Y-113737540D01*
X175082601Y-113660374D01*
X174986619Y-113573381D01*
X174899626Y-113477399D01*
X174822460Y-113373353D01*
X174755864Y-113262244D01*
X174700479Y-113145142D01*
X174656839Y-113023176D01*
X174625363Y-112897519D01*
X174606356Y-112769383D01*
X174600000Y-112640000D01*
X174600000Y-110880000D01*
X174606356Y-110750617D01*
X174625363Y-110622481D01*
X174656839Y-110496824D01*
X174700479Y-110374858D01*
X174755864Y-110257756D01*
X174822460Y-110146647D01*
X174899626Y-110042601D01*
X174986619Y-109946619D01*
X175082601Y-109859626D01*
X175186647Y-109782460D01*
X175297756Y-109715864D01*
X175414858Y-109660479D01*
X175536824Y-109616839D01*
X175662481Y-109585363D01*
X175790617Y-109566356D01*
X175920000Y-109560000D01*
X181680000Y-109560000D01*
X181809383Y-109566356D01*
X181809383Y-109566356D01*
G37*
D21*
X178800000Y-111760000D03*
D20*
G36*
X186809383Y-109566356D02*
X186937519Y-109585363D01*
X187063176Y-109616839D01*
X187185142Y-109660479D01*
X187302244Y-109715864D01*
X187413353Y-109782460D01*
X187517399Y-109859626D01*
X187613381Y-109946619D01*
X187700374Y-110042601D01*
X187777540Y-110146647D01*
X187844136Y-110257756D01*
X187899521Y-110374858D01*
X187943161Y-110496824D01*
X187974637Y-110622481D01*
X187993644Y-110750617D01*
X188000000Y-110880000D01*
X188000000Y-112640000D01*
X187993644Y-112769383D01*
X187974637Y-112897519D01*
X187943161Y-113023176D01*
X187899521Y-113145142D01*
X187844136Y-113262244D01*
X187777540Y-113373353D01*
X187700374Y-113477399D01*
X187613381Y-113573381D01*
X187517399Y-113660374D01*
X187413353Y-113737540D01*
X187302244Y-113804136D01*
X187185142Y-113859521D01*
X187063176Y-113903161D01*
X186937519Y-113934637D01*
X186809383Y-113953644D01*
X186680000Y-113960000D01*
X180920000Y-113960000D01*
X180790617Y-113953644D01*
X180662481Y-113934637D01*
X180536824Y-113903161D01*
X180414858Y-113859521D01*
X180297756Y-113804136D01*
X180186647Y-113737540D01*
X180082601Y-113660374D01*
X179986619Y-113573381D01*
X179899626Y-113477399D01*
X179822460Y-113373353D01*
X179755864Y-113262244D01*
X179700479Y-113145142D01*
X179656839Y-113023176D01*
X179625363Y-112897519D01*
X179606356Y-112769383D01*
X179600000Y-112640000D01*
X179600000Y-110880000D01*
X179606356Y-110750617D01*
X179625363Y-110622481D01*
X179656839Y-110496824D01*
X179700479Y-110374858D01*
X179755864Y-110257756D01*
X179822460Y-110146647D01*
X179899626Y-110042601D01*
X179986619Y-109946619D01*
X180082601Y-109859626D01*
X180186647Y-109782460D01*
X180297756Y-109715864D01*
X180414858Y-109660479D01*
X180536824Y-109616839D01*
X180662481Y-109585363D01*
X180790617Y-109566356D01*
X180920000Y-109560000D01*
X186680000Y-109560000D01*
X186809383Y-109566356D01*
X186809383Y-109566356D01*
G37*
D21*
X183800000Y-111760000D03*
G04 #@! TD*
D20*
G04 #@! TO.C,2*
G36*
X186809383Y-102581356D02*
X186937519Y-102600363D01*
X187063176Y-102631839D01*
X187185142Y-102675479D01*
X187302244Y-102730864D01*
X187413353Y-102797460D01*
X187517399Y-102874626D01*
X187613381Y-102961619D01*
X187700374Y-103057601D01*
X187777540Y-103161647D01*
X187844136Y-103272756D01*
X187899521Y-103389858D01*
X187943161Y-103511824D01*
X187974637Y-103637481D01*
X187993644Y-103765617D01*
X188000000Y-103895000D01*
X188000000Y-105655000D01*
X187993644Y-105784383D01*
X187974637Y-105912519D01*
X187943161Y-106038176D01*
X187899521Y-106160142D01*
X187844136Y-106277244D01*
X187777540Y-106388353D01*
X187700374Y-106492399D01*
X187613381Y-106588381D01*
X187517399Y-106675374D01*
X187413353Y-106752540D01*
X187302244Y-106819136D01*
X187185142Y-106874521D01*
X187063176Y-106918161D01*
X186937519Y-106949637D01*
X186809383Y-106968644D01*
X186680000Y-106975000D01*
X180920000Y-106975000D01*
X180790617Y-106968644D01*
X180662481Y-106949637D01*
X180536824Y-106918161D01*
X180414858Y-106874521D01*
X180297756Y-106819136D01*
X180186647Y-106752540D01*
X180082601Y-106675374D01*
X179986619Y-106588381D01*
X179899626Y-106492399D01*
X179822460Y-106388353D01*
X179755864Y-106277244D01*
X179700479Y-106160142D01*
X179656839Y-106038176D01*
X179625363Y-105912519D01*
X179606356Y-105784383D01*
X179600000Y-105655000D01*
X179600000Y-103895000D01*
X179606356Y-103765617D01*
X179625363Y-103637481D01*
X179656839Y-103511824D01*
X179700479Y-103389858D01*
X179755864Y-103272756D01*
X179822460Y-103161647D01*
X179899626Y-103057601D01*
X179986619Y-102961619D01*
X180082601Y-102874626D01*
X180186647Y-102797460D01*
X180297756Y-102730864D01*
X180414858Y-102675479D01*
X180536824Y-102631839D01*
X180662481Y-102600363D01*
X180790617Y-102581356D01*
X180920000Y-102575000D01*
X186680000Y-102575000D01*
X186809383Y-102581356D01*
X186809383Y-102581356D01*
G37*
D21*
X183800000Y-104775000D03*
D20*
G36*
X181809383Y-102581356D02*
X181937519Y-102600363D01*
X182063176Y-102631839D01*
X182185142Y-102675479D01*
X182302244Y-102730864D01*
X182413353Y-102797460D01*
X182517399Y-102874626D01*
X182613381Y-102961619D01*
X182700374Y-103057601D01*
X182777540Y-103161647D01*
X182844136Y-103272756D01*
X182899521Y-103389858D01*
X182943161Y-103511824D01*
X182974637Y-103637481D01*
X182993644Y-103765617D01*
X183000000Y-103895000D01*
X183000000Y-105655000D01*
X182993644Y-105784383D01*
X182974637Y-105912519D01*
X182943161Y-106038176D01*
X182899521Y-106160142D01*
X182844136Y-106277244D01*
X182777540Y-106388353D01*
X182700374Y-106492399D01*
X182613381Y-106588381D01*
X182517399Y-106675374D01*
X182413353Y-106752540D01*
X182302244Y-106819136D01*
X182185142Y-106874521D01*
X182063176Y-106918161D01*
X181937519Y-106949637D01*
X181809383Y-106968644D01*
X181680000Y-106975000D01*
X175920000Y-106975000D01*
X175790617Y-106968644D01*
X175662481Y-106949637D01*
X175536824Y-106918161D01*
X175414858Y-106874521D01*
X175297756Y-106819136D01*
X175186647Y-106752540D01*
X175082601Y-106675374D01*
X174986619Y-106588381D01*
X174899626Y-106492399D01*
X174822460Y-106388353D01*
X174755864Y-106277244D01*
X174700479Y-106160142D01*
X174656839Y-106038176D01*
X174625363Y-105912519D01*
X174606356Y-105784383D01*
X174600000Y-105655000D01*
X174600000Y-103895000D01*
X174606356Y-103765617D01*
X174625363Y-103637481D01*
X174656839Y-103511824D01*
X174700479Y-103389858D01*
X174755864Y-103272756D01*
X174822460Y-103161647D01*
X174899626Y-103057601D01*
X174986619Y-102961619D01*
X175082601Y-102874626D01*
X175186647Y-102797460D01*
X175297756Y-102730864D01*
X175414858Y-102675479D01*
X175536824Y-102631839D01*
X175662481Y-102600363D01*
X175790617Y-102581356D01*
X175920000Y-102575000D01*
X181680000Y-102575000D01*
X181809383Y-102581356D01*
X181809383Y-102581356D01*
G37*
D21*
X178800000Y-104775000D03*
G04 #@! TD*
D20*
G04 #@! TO.C,5*
G36*
X181809383Y-95596356D02*
X181937519Y-95615363D01*
X182063176Y-95646839D01*
X182185142Y-95690479D01*
X182302244Y-95745864D01*
X182413353Y-95812460D01*
X182517399Y-95889626D01*
X182613381Y-95976619D01*
X182700374Y-96072601D01*
X182777540Y-96176647D01*
X182844136Y-96287756D01*
X182899521Y-96404858D01*
X182943161Y-96526824D01*
X182974637Y-96652481D01*
X182993644Y-96780617D01*
X183000000Y-96910000D01*
X183000000Y-98670000D01*
X182993644Y-98799383D01*
X182974637Y-98927519D01*
X182943161Y-99053176D01*
X182899521Y-99175142D01*
X182844136Y-99292244D01*
X182777540Y-99403353D01*
X182700374Y-99507399D01*
X182613381Y-99603381D01*
X182517399Y-99690374D01*
X182413353Y-99767540D01*
X182302244Y-99834136D01*
X182185142Y-99889521D01*
X182063176Y-99933161D01*
X181937519Y-99964637D01*
X181809383Y-99983644D01*
X181680000Y-99990000D01*
X175920000Y-99990000D01*
X175790617Y-99983644D01*
X175662481Y-99964637D01*
X175536824Y-99933161D01*
X175414858Y-99889521D01*
X175297756Y-99834136D01*
X175186647Y-99767540D01*
X175082601Y-99690374D01*
X174986619Y-99603381D01*
X174899626Y-99507399D01*
X174822460Y-99403353D01*
X174755864Y-99292244D01*
X174700479Y-99175142D01*
X174656839Y-99053176D01*
X174625363Y-98927519D01*
X174606356Y-98799383D01*
X174600000Y-98670000D01*
X174600000Y-96910000D01*
X174606356Y-96780617D01*
X174625363Y-96652481D01*
X174656839Y-96526824D01*
X174700479Y-96404858D01*
X174755864Y-96287756D01*
X174822460Y-96176647D01*
X174899626Y-96072601D01*
X174986619Y-95976619D01*
X175082601Y-95889626D01*
X175186647Y-95812460D01*
X175297756Y-95745864D01*
X175414858Y-95690479D01*
X175536824Y-95646839D01*
X175662481Y-95615363D01*
X175790617Y-95596356D01*
X175920000Y-95590000D01*
X181680000Y-95590000D01*
X181809383Y-95596356D01*
X181809383Y-95596356D01*
G37*
D21*
X178800000Y-97790000D03*
D20*
G36*
X186809383Y-95596356D02*
X186937519Y-95615363D01*
X187063176Y-95646839D01*
X187185142Y-95690479D01*
X187302244Y-95745864D01*
X187413353Y-95812460D01*
X187517399Y-95889626D01*
X187613381Y-95976619D01*
X187700374Y-96072601D01*
X187777540Y-96176647D01*
X187844136Y-96287756D01*
X187899521Y-96404858D01*
X187943161Y-96526824D01*
X187974637Y-96652481D01*
X187993644Y-96780617D01*
X188000000Y-96910000D01*
X188000000Y-98670000D01*
X187993644Y-98799383D01*
X187974637Y-98927519D01*
X187943161Y-99053176D01*
X187899521Y-99175142D01*
X187844136Y-99292244D01*
X187777540Y-99403353D01*
X187700374Y-99507399D01*
X187613381Y-99603381D01*
X187517399Y-99690374D01*
X187413353Y-99767540D01*
X187302244Y-99834136D01*
X187185142Y-99889521D01*
X187063176Y-99933161D01*
X186937519Y-99964637D01*
X186809383Y-99983644D01*
X186680000Y-99990000D01*
X180920000Y-99990000D01*
X180790617Y-99983644D01*
X180662481Y-99964637D01*
X180536824Y-99933161D01*
X180414858Y-99889521D01*
X180297756Y-99834136D01*
X180186647Y-99767540D01*
X180082601Y-99690374D01*
X179986619Y-99603381D01*
X179899626Y-99507399D01*
X179822460Y-99403353D01*
X179755864Y-99292244D01*
X179700479Y-99175142D01*
X179656839Y-99053176D01*
X179625363Y-98927519D01*
X179606356Y-98799383D01*
X179600000Y-98670000D01*
X179600000Y-96910000D01*
X179606356Y-96780617D01*
X179625363Y-96652481D01*
X179656839Y-96526824D01*
X179700479Y-96404858D01*
X179755864Y-96287756D01*
X179822460Y-96176647D01*
X179899626Y-96072601D01*
X179986619Y-95976619D01*
X180082601Y-95889626D01*
X180186647Y-95812460D01*
X180297756Y-95745864D01*
X180414858Y-95690479D01*
X180536824Y-95646839D01*
X180662481Y-95615363D01*
X180790617Y-95596356D01*
X180920000Y-95590000D01*
X186680000Y-95590000D01*
X186809383Y-95596356D01*
X186809383Y-95596356D01*
G37*
D21*
X183800000Y-97790000D03*
G04 #@! TD*
D20*
G04 #@! TO.C,GND*
G36*
X186809383Y-88611356D02*
X186937519Y-88630363D01*
X187063176Y-88661839D01*
X187185142Y-88705479D01*
X187302244Y-88760864D01*
X187413353Y-88827460D01*
X187517399Y-88904626D01*
X187613381Y-88991619D01*
X187700374Y-89087601D01*
X187777540Y-89191647D01*
X187844136Y-89302756D01*
X187899521Y-89419858D01*
X187943161Y-89541824D01*
X187974637Y-89667481D01*
X187993644Y-89795617D01*
X188000000Y-89925000D01*
X188000000Y-91685000D01*
X187993644Y-91814383D01*
X187974637Y-91942519D01*
X187943161Y-92068176D01*
X187899521Y-92190142D01*
X187844136Y-92307244D01*
X187777540Y-92418353D01*
X187700374Y-92522399D01*
X187613381Y-92618381D01*
X187517399Y-92705374D01*
X187413353Y-92782540D01*
X187302244Y-92849136D01*
X187185142Y-92904521D01*
X187063176Y-92948161D01*
X186937519Y-92979637D01*
X186809383Y-92998644D01*
X186680000Y-93005000D01*
X180920000Y-93005000D01*
X180790617Y-92998644D01*
X180662481Y-92979637D01*
X180536824Y-92948161D01*
X180414858Y-92904521D01*
X180297756Y-92849136D01*
X180186647Y-92782540D01*
X180082601Y-92705374D01*
X179986619Y-92618381D01*
X179899626Y-92522399D01*
X179822460Y-92418353D01*
X179755864Y-92307244D01*
X179700479Y-92190142D01*
X179656839Y-92068176D01*
X179625363Y-91942519D01*
X179606356Y-91814383D01*
X179600000Y-91685000D01*
X179600000Y-89925000D01*
X179606356Y-89795617D01*
X179625363Y-89667481D01*
X179656839Y-89541824D01*
X179700479Y-89419858D01*
X179755864Y-89302756D01*
X179822460Y-89191647D01*
X179899626Y-89087601D01*
X179986619Y-88991619D01*
X180082601Y-88904626D01*
X180186647Y-88827460D01*
X180297756Y-88760864D01*
X180414858Y-88705479D01*
X180536824Y-88661839D01*
X180662481Y-88630363D01*
X180790617Y-88611356D01*
X180920000Y-88605000D01*
X186680000Y-88605000D01*
X186809383Y-88611356D01*
X186809383Y-88611356D01*
G37*
D21*
X183800000Y-90805000D03*
D20*
G36*
X181809383Y-88611356D02*
X181937519Y-88630363D01*
X182063176Y-88661839D01*
X182185142Y-88705479D01*
X182302244Y-88760864D01*
X182413353Y-88827460D01*
X182517399Y-88904626D01*
X182613381Y-88991619D01*
X182700374Y-89087601D01*
X182777540Y-89191647D01*
X182844136Y-89302756D01*
X182899521Y-89419858D01*
X182943161Y-89541824D01*
X182974637Y-89667481D01*
X182993644Y-89795617D01*
X183000000Y-89925000D01*
X183000000Y-91685000D01*
X182993644Y-91814383D01*
X182974637Y-91942519D01*
X182943161Y-92068176D01*
X182899521Y-92190142D01*
X182844136Y-92307244D01*
X182777540Y-92418353D01*
X182700374Y-92522399D01*
X182613381Y-92618381D01*
X182517399Y-92705374D01*
X182413353Y-92782540D01*
X182302244Y-92849136D01*
X182185142Y-92904521D01*
X182063176Y-92948161D01*
X181937519Y-92979637D01*
X181809383Y-92998644D01*
X181680000Y-93005000D01*
X175920000Y-93005000D01*
X175790617Y-92998644D01*
X175662481Y-92979637D01*
X175536824Y-92948161D01*
X175414858Y-92904521D01*
X175297756Y-92849136D01*
X175186647Y-92782540D01*
X175082601Y-92705374D01*
X174986619Y-92618381D01*
X174899626Y-92522399D01*
X174822460Y-92418353D01*
X174755864Y-92307244D01*
X174700479Y-92190142D01*
X174656839Y-92068176D01*
X174625363Y-91942519D01*
X174606356Y-91814383D01*
X174600000Y-91685000D01*
X174600000Y-89925000D01*
X174606356Y-89795617D01*
X174625363Y-89667481D01*
X174656839Y-89541824D01*
X174700479Y-89419858D01*
X174755864Y-89302756D01*
X174822460Y-89191647D01*
X174899626Y-89087601D01*
X174986619Y-88991619D01*
X175082601Y-88904626D01*
X175186647Y-88827460D01*
X175297756Y-88760864D01*
X175414858Y-88705479D01*
X175536824Y-88661839D01*
X175662481Y-88630363D01*
X175790617Y-88611356D01*
X175920000Y-88605000D01*
X181680000Y-88605000D01*
X181809383Y-88611356D01*
X181809383Y-88611356D01*
G37*
D21*
X178800000Y-90805000D03*
G04 #@! TD*
D10*
G04 #@! TO.C,REF\002A\002A*
X127500000Y-117500000D03*
G04 #@! TD*
M02*
