G04 #@! TF.GenerationSoftware,KiCad,Pcbnew,(5.0.0)*
G04 #@! TF.CreationDate,2018-09-25T23:14:14-03:00*
G04 #@! TF.ProjectId,FranzMakeyDIY,4672616E7A4D616B65794449592E6B69,rev?*
G04 #@! TF.SameCoordinates,Original*
G04 #@! TF.FileFunction,Copper,L2,Bot,Signal*
G04 #@! TF.FilePolarity,Positive*
%FSLAX46Y46*%
G04 Gerber Fmt 4.6, Leading zero omitted, Abs format (unit mm)*
G04 Created by KiCad (PCBNEW (5.0.0)) date 09/25/18 23:14:14*
%MOMM*%
%LPD*%
G01*
G04 APERTURE LIST*
G04 #@! TA.AperFunction,ComponentPad*
%ADD10O,2.400000X1.600000*%
G04 #@! TD*
G04 #@! TA.AperFunction,ComponentPad*
%ADD11R,2.400000X1.600000*%
G04 #@! TD*
G04 #@! TA.AperFunction,ComponentPad*
%ADD12C,1.879600*%
G04 #@! TD*
G04 #@! TA.AperFunction,ComponentPad*
%ADD13C,1.676400*%
G04 #@! TD*
G04 #@! TA.AperFunction,ComponentPad*
%ADD14R,1.700000X1.700000*%
G04 #@! TD*
G04 #@! TA.AperFunction,ComponentPad*
%ADD15C,1.700000*%
G04 #@! TD*
G04 #@! TA.AperFunction,ComponentPad*
%ADD16C,3.500000*%
G04 #@! TD*
G04 #@! TA.AperFunction,ComponentPad*
%ADD17C,1.600000*%
G04 #@! TD*
G04 #@! TA.AperFunction,ComponentPad*
%ADD18R,1.600000X1.600000*%
G04 #@! TD*
G04 #@! TA.AperFunction,Conductor*
%ADD19C,0.100000*%
G04 #@! TD*
G04 #@! TA.AperFunction,ComponentPad*
%ADD20C,4.000000*%
G04 #@! TD*
G04 #@! TA.AperFunction,Conductor*
%ADD21C,0.508000*%
G04 #@! TD*
G04 #@! TA.AperFunction,Conductor*
%ADD22C,0.254000*%
G04 #@! TD*
G04 APERTURE END LIST*
D10*
G04 #@! TO.P,IC1,8*
G04 #@! TO.N,5V*
X156210000Y-101600000D03*
G04 #@! TO.P,IC1,4*
G04 #@! TO.N,GND*
X148590000Y-109220000D03*
G04 #@! TO.P,IC1,7*
G04 #@! TO.N,Net-(IC1-Pad7)*
X156210000Y-104140000D03*
G04 #@! TO.P,IC1,3*
G04 #@! TO.N,Net-(IC1-Pad3)*
X148590000Y-106680000D03*
G04 #@! TO.P,IC1,6*
G04 #@! TO.N,Net-(IC1-Pad6)*
X156210000Y-106680000D03*
G04 #@! TO.P,IC1,2*
G04 #@! TO.N,Net-(IC1-Pad2)*
X148590000Y-104140000D03*
G04 #@! TO.P,IC1,5*
G04 #@! TO.N,Net-(IC1-Pad5)*
X156210000Y-109220000D03*
D11*
G04 #@! TO.P,IC1,1*
G04 #@! TO.N,Net-(IC1-Pad1)*
X148590000Y-101600000D03*
G04 #@! TD*
D12*
G04 #@! TO.P,D2,C*
G04 #@! TO.N,Net-(D2-PadC)*
X134620000Y-100330000D03*
G04 #@! TO.P,D2,A*
G04 #@! TO.N,GND*
X142240000Y-100330000D03*
G04 #@! TD*
G04 #@! TO.P,D1,C*
G04 #@! TO.N,Net-(D1-PadC)*
X134620000Y-97790000D03*
G04 #@! TO.P,D1,A*
G04 #@! TO.N,GND*
X142240000Y-97790000D03*
G04 #@! TD*
D13*
G04 #@! TO.P,C1,2*
G04 #@! TO.N,GND*
X156210000Y-96520000D03*
G04 #@! TO.P,C1,1*
G04 #@! TO.N,5V*
X153670000Y-96520000D03*
G04 #@! TD*
D12*
G04 #@! TO.P,R1,P$2*
G04 #@! TO.N,Net-(IC1-Pad2)*
X144780000Y-103505000D03*
G04 #@! TO.P,R1,P$1*
G04 #@! TO.N,Net-(D1-PadC)*
X134620000Y-103505000D03*
G04 #@! TD*
G04 #@! TO.P,R2,P$2*
G04 #@! TO.N,Net-(IC1-Pad3)*
X144780000Y-106680000D03*
G04 #@! TO.P,R2,P$1*
G04 #@! TO.N,Net-(D2-PadC)*
X134620000Y-106680000D03*
G04 #@! TD*
G04 #@! TO.P,R3,P$2*
G04 #@! TO.N,Net-(D1-PadC)*
X134620000Y-109855000D03*
G04 #@! TO.P,R3,P$1*
G04 #@! TO.N,5V*
X144780000Y-109855000D03*
G04 #@! TD*
G04 #@! TO.P,R5,P$2*
G04 #@! TO.N,Net-(IC1-Pad5)*
X159385000Y-109855000D03*
G04 #@! TO.P,R5,P$1*
G04 #@! TO.N,5V*
X169545000Y-109855000D03*
G04 #@! TD*
G04 #@! TO.P,R4,P$2*
G04 #@! TO.N,Net-(ON1-PadK)*
X144780000Y-113030000D03*
G04 #@! TO.P,R4,P$1*
G04 #@! TO.N,GND*
X134620000Y-113030000D03*
G04 #@! TD*
D13*
G04 #@! TO.P,ON,A*
G04 #@! TO.N,5V*
X152400000Y-113665000D03*
G04 #@! TO.P,ON,K*
G04 #@! TO.N,Net-(ON1-PadK)*
X152400000Y-116205000D03*
G04 #@! TD*
D12*
G04 #@! TO.P,R6,P$1*
G04 #@! TO.N,5V*
X169545000Y-106680000D03*
G04 #@! TO.P,R6,P$2*
G04 #@! TO.N,Net-(IC1-Pad6)*
X159385000Y-106680000D03*
G04 #@! TD*
G04 #@! TO.P,R7,P$2*
G04 #@! TO.N,Net-(IC1-Pad7)*
X159385000Y-103505000D03*
G04 #@! TO.P,R7,P$1*
G04 #@! TO.N,5V*
X169545000Y-103505000D03*
G04 #@! TD*
G04 #@! TO.P,R8,P$1*
G04 #@! TO.N,5V*
X169545000Y-100330000D03*
G04 #@! TO.P,R8,P$2*
G04 #@! TO.N,Net-(IC1-Pad1)*
X159385000Y-100330000D03*
G04 #@! TD*
D14*
G04 #@! TO.P,J6,1*
G04 #@! TO.N,5V*
X130175000Y-106680000D03*
D15*
G04 #@! TO.P,J6,2*
G04 #@! TO.N,Net-(D1-PadC)*
X130175000Y-104180000D03*
G04 #@! TO.P,J6,3*
G04 #@! TO.N,Net-(D2-PadC)*
X128175000Y-104180000D03*
G04 #@! TO.P,J6,4*
G04 #@! TO.N,GND*
X128175000Y-106680000D03*
D16*
G04 #@! TO.P,J6,5*
X125465000Y-111450000D03*
X125465000Y-99410000D03*
G04 #@! TD*
D17*
G04 #@! TO.P,C2,2*
G04 #@! TO.N,GND*
X147360000Y-96520000D03*
D18*
G04 #@! TO.P,C2,1*
G04 #@! TO.N,5V*
X149860000Y-96520000D03*
G04 #@! TD*
D19*
G04 #@! TO.N,Net-(IC1-Pad5)*
G04 #@! TO.C,0*
G36*
X186717621Y-116750778D02*
X186834108Y-116768058D01*
X186948342Y-116796672D01*
X187059220Y-116836345D01*
X187165676Y-116886694D01*
X187266684Y-116947236D01*
X187361272Y-117017387D01*
X187448528Y-117096472D01*
X187527613Y-117183728D01*
X187597764Y-117278316D01*
X187658306Y-117379324D01*
X187708655Y-117485780D01*
X187748328Y-117596658D01*
X187776942Y-117710892D01*
X187794222Y-117827379D01*
X187800000Y-117945000D01*
X187800000Y-119545000D01*
X187794222Y-119662621D01*
X187776942Y-119779108D01*
X187748328Y-119893342D01*
X187708655Y-120004220D01*
X187658306Y-120110676D01*
X187597764Y-120211684D01*
X187527613Y-120306272D01*
X187448528Y-120393528D01*
X187361272Y-120472613D01*
X187266684Y-120542764D01*
X187165676Y-120603306D01*
X187059220Y-120653655D01*
X186948342Y-120693328D01*
X186834108Y-120721942D01*
X186717621Y-120739222D01*
X186600000Y-120745000D01*
X181000000Y-120745000D01*
X180882379Y-120739222D01*
X180765892Y-120721942D01*
X180651658Y-120693328D01*
X180540780Y-120653655D01*
X180434324Y-120603306D01*
X180333316Y-120542764D01*
X180238728Y-120472613D01*
X180151472Y-120393528D01*
X180072387Y-120306272D01*
X180002236Y-120211684D01*
X179941694Y-120110676D01*
X179891345Y-120004220D01*
X179851672Y-119893342D01*
X179823058Y-119779108D01*
X179805778Y-119662621D01*
X179800000Y-119545000D01*
X179800000Y-117945000D01*
X179805778Y-117827379D01*
X179823058Y-117710892D01*
X179851672Y-117596658D01*
X179891345Y-117485780D01*
X179941694Y-117379324D01*
X180002236Y-117278316D01*
X180072387Y-117183728D01*
X180151472Y-117096472D01*
X180238728Y-117017387D01*
X180333316Y-116947236D01*
X180434324Y-116886694D01*
X180540780Y-116836345D01*
X180651658Y-116796672D01*
X180765892Y-116768058D01*
X180882379Y-116750778D01*
X181000000Y-116745000D01*
X186600000Y-116745000D01*
X186717621Y-116750778D01*
X186717621Y-116750778D01*
G37*
D20*
G04 #@! TD*
G04 #@! TO.P,0,1*
G04 #@! TO.N,Net-(IC1-Pad5)*
X183800000Y-118745000D03*
D19*
G04 #@! TO.N,Net-(IC1-Pad5)*
G04 #@! TO.C,0*
G36*
X181717621Y-116750778D02*
X181834108Y-116768058D01*
X181948342Y-116796672D01*
X182059220Y-116836345D01*
X182165676Y-116886694D01*
X182266684Y-116947236D01*
X182361272Y-117017387D01*
X182448528Y-117096472D01*
X182527613Y-117183728D01*
X182597764Y-117278316D01*
X182658306Y-117379324D01*
X182708655Y-117485780D01*
X182748328Y-117596658D01*
X182776942Y-117710892D01*
X182794222Y-117827379D01*
X182800000Y-117945000D01*
X182800000Y-119545000D01*
X182794222Y-119662621D01*
X182776942Y-119779108D01*
X182748328Y-119893342D01*
X182708655Y-120004220D01*
X182658306Y-120110676D01*
X182597764Y-120211684D01*
X182527613Y-120306272D01*
X182448528Y-120393528D01*
X182361272Y-120472613D01*
X182266684Y-120542764D01*
X182165676Y-120603306D01*
X182059220Y-120653655D01*
X181948342Y-120693328D01*
X181834108Y-120721942D01*
X181717621Y-120739222D01*
X181600000Y-120745000D01*
X176000000Y-120745000D01*
X175882379Y-120739222D01*
X175765892Y-120721942D01*
X175651658Y-120693328D01*
X175540780Y-120653655D01*
X175434324Y-120603306D01*
X175333316Y-120542764D01*
X175238728Y-120472613D01*
X175151472Y-120393528D01*
X175072387Y-120306272D01*
X175002236Y-120211684D01*
X174941694Y-120110676D01*
X174891345Y-120004220D01*
X174851672Y-119893342D01*
X174823058Y-119779108D01*
X174805778Y-119662621D01*
X174800000Y-119545000D01*
X174800000Y-117945000D01*
X174805778Y-117827379D01*
X174823058Y-117710892D01*
X174851672Y-117596658D01*
X174891345Y-117485780D01*
X174941694Y-117379324D01*
X175002236Y-117278316D01*
X175072387Y-117183728D01*
X175151472Y-117096472D01*
X175238728Y-117017387D01*
X175333316Y-116947236D01*
X175434324Y-116886694D01*
X175540780Y-116836345D01*
X175651658Y-116796672D01*
X175765892Y-116768058D01*
X175882379Y-116750778D01*
X176000000Y-116745000D01*
X181600000Y-116745000D01*
X181717621Y-116750778D01*
X181717621Y-116750778D01*
G37*
D20*
G04 #@! TD*
G04 #@! TO.P,0,1*
G04 #@! TO.N,Net-(IC1-Pad5)*
X178800000Y-118745000D03*
D19*
G04 #@! TO.N,Net-(IC1-Pad6)*
G04 #@! TO.C,1*
G36*
X181717621Y-109765778D02*
X181834108Y-109783058D01*
X181948342Y-109811672D01*
X182059220Y-109851345D01*
X182165676Y-109901694D01*
X182266684Y-109962236D01*
X182361272Y-110032387D01*
X182448528Y-110111472D01*
X182527613Y-110198728D01*
X182597764Y-110293316D01*
X182658306Y-110394324D01*
X182708655Y-110500780D01*
X182748328Y-110611658D01*
X182776942Y-110725892D01*
X182794222Y-110842379D01*
X182800000Y-110960000D01*
X182800000Y-112560000D01*
X182794222Y-112677621D01*
X182776942Y-112794108D01*
X182748328Y-112908342D01*
X182708655Y-113019220D01*
X182658306Y-113125676D01*
X182597764Y-113226684D01*
X182527613Y-113321272D01*
X182448528Y-113408528D01*
X182361272Y-113487613D01*
X182266684Y-113557764D01*
X182165676Y-113618306D01*
X182059220Y-113668655D01*
X181948342Y-113708328D01*
X181834108Y-113736942D01*
X181717621Y-113754222D01*
X181600000Y-113760000D01*
X176000000Y-113760000D01*
X175882379Y-113754222D01*
X175765892Y-113736942D01*
X175651658Y-113708328D01*
X175540780Y-113668655D01*
X175434324Y-113618306D01*
X175333316Y-113557764D01*
X175238728Y-113487613D01*
X175151472Y-113408528D01*
X175072387Y-113321272D01*
X175002236Y-113226684D01*
X174941694Y-113125676D01*
X174891345Y-113019220D01*
X174851672Y-112908342D01*
X174823058Y-112794108D01*
X174805778Y-112677621D01*
X174800000Y-112560000D01*
X174800000Y-110960000D01*
X174805778Y-110842379D01*
X174823058Y-110725892D01*
X174851672Y-110611658D01*
X174891345Y-110500780D01*
X174941694Y-110394324D01*
X175002236Y-110293316D01*
X175072387Y-110198728D01*
X175151472Y-110111472D01*
X175238728Y-110032387D01*
X175333316Y-109962236D01*
X175434324Y-109901694D01*
X175540780Y-109851345D01*
X175651658Y-109811672D01*
X175765892Y-109783058D01*
X175882379Y-109765778D01*
X176000000Y-109760000D01*
X181600000Y-109760000D01*
X181717621Y-109765778D01*
X181717621Y-109765778D01*
G37*
D20*
G04 #@! TD*
G04 #@! TO.P,1,1*
G04 #@! TO.N,Net-(IC1-Pad6)*
X178800000Y-111760000D03*
D19*
G04 #@! TO.N,Net-(IC1-Pad6)*
G04 #@! TO.C,1*
G36*
X186717621Y-109765778D02*
X186834108Y-109783058D01*
X186948342Y-109811672D01*
X187059220Y-109851345D01*
X187165676Y-109901694D01*
X187266684Y-109962236D01*
X187361272Y-110032387D01*
X187448528Y-110111472D01*
X187527613Y-110198728D01*
X187597764Y-110293316D01*
X187658306Y-110394324D01*
X187708655Y-110500780D01*
X187748328Y-110611658D01*
X187776942Y-110725892D01*
X187794222Y-110842379D01*
X187800000Y-110960000D01*
X187800000Y-112560000D01*
X187794222Y-112677621D01*
X187776942Y-112794108D01*
X187748328Y-112908342D01*
X187708655Y-113019220D01*
X187658306Y-113125676D01*
X187597764Y-113226684D01*
X187527613Y-113321272D01*
X187448528Y-113408528D01*
X187361272Y-113487613D01*
X187266684Y-113557764D01*
X187165676Y-113618306D01*
X187059220Y-113668655D01*
X186948342Y-113708328D01*
X186834108Y-113736942D01*
X186717621Y-113754222D01*
X186600000Y-113760000D01*
X181000000Y-113760000D01*
X180882379Y-113754222D01*
X180765892Y-113736942D01*
X180651658Y-113708328D01*
X180540780Y-113668655D01*
X180434324Y-113618306D01*
X180333316Y-113557764D01*
X180238728Y-113487613D01*
X180151472Y-113408528D01*
X180072387Y-113321272D01*
X180002236Y-113226684D01*
X179941694Y-113125676D01*
X179891345Y-113019220D01*
X179851672Y-112908342D01*
X179823058Y-112794108D01*
X179805778Y-112677621D01*
X179800000Y-112560000D01*
X179800000Y-110960000D01*
X179805778Y-110842379D01*
X179823058Y-110725892D01*
X179851672Y-110611658D01*
X179891345Y-110500780D01*
X179941694Y-110394324D01*
X180002236Y-110293316D01*
X180072387Y-110198728D01*
X180151472Y-110111472D01*
X180238728Y-110032387D01*
X180333316Y-109962236D01*
X180434324Y-109901694D01*
X180540780Y-109851345D01*
X180651658Y-109811672D01*
X180765892Y-109783058D01*
X180882379Y-109765778D01*
X181000000Y-109760000D01*
X186600000Y-109760000D01*
X186717621Y-109765778D01*
X186717621Y-109765778D01*
G37*
D20*
G04 #@! TD*
G04 #@! TO.P,1,1*
G04 #@! TO.N,Net-(IC1-Pad6)*
X183800000Y-111760000D03*
D19*
G04 #@! TO.N,Net-(IC1-Pad7)*
G04 #@! TO.C,2*
G36*
X186717621Y-102780778D02*
X186834108Y-102798058D01*
X186948342Y-102826672D01*
X187059220Y-102866345D01*
X187165676Y-102916694D01*
X187266684Y-102977236D01*
X187361272Y-103047387D01*
X187448528Y-103126472D01*
X187527613Y-103213728D01*
X187597764Y-103308316D01*
X187658306Y-103409324D01*
X187708655Y-103515780D01*
X187748328Y-103626658D01*
X187776942Y-103740892D01*
X187794222Y-103857379D01*
X187800000Y-103975000D01*
X187800000Y-105575000D01*
X187794222Y-105692621D01*
X187776942Y-105809108D01*
X187748328Y-105923342D01*
X187708655Y-106034220D01*
X187658306Y-106140676D01*
X187597764Y-106241684D01*
X187527613Y-106336272D01*
X187448528Y-106423528D01*
X187361272Y-106502613D01*
X187266684Y-106572764D01*
X187165676Y-106633306D01*
X187059220Y-106683655D01*
X186948342Y-106723328D01*
X186834108Y-106751942D01*
X186717621Y-106769222D01*
X186600000Y-106775000D01*
X181000000Y-106775000D01*
X180882379Y-106769222D01*
X180765892Y-106751942D01*
X180651658Y-106723328D01*
X180540780Y-106683655D01*
X180434324Y-106633306D01*
X180333316Y-106572764D01*
X180238728Y-106502613D01*
X180151472Y-106423528D01*
X180072387Y-106336272D01*
X180002236Y-106241684D01*
X179941694Y-106140676D01*
X179891345Y-106034220D01*
X179851672Y-105923342D01*
X179823058Y-105809108D01*
X179805778Y-105692621D01*
X179800000Y-105575000D01*
X179800000Y-103975000D01*
X179805778Y-103857379D01*
X179823058Y-103740892D01*
X179851672Y-103626658D01*
X179891345Y-103515780D01*
X179941694Y-103409324D01*
X180002236Y-103308316D01*
X180072387Y-103213728D01*
X180151472Y-103126472D01*
X180238728Y-103047387D01*
X180333316Y-102977236D01*
X180434324Y-102916694D01*
X180540780Y-102866345D01*
X180651658Y-102826672D01*
X180765892Y-102798058D01*
X180882379Y-102780778D01*
X181000000Y-102775000D01*
X186600000Y-102775000D01*
X186717621Y-102780778D01*
X186717621Y-102780778D01*
G37*
D20*
G04 #@! TD*
G04 #@! TO.P,2,1*
G04 #@! TO.N,Net-(IC1-Pad7)*
X183800000Y-104775000D03*
D19*
G04 #@! TO.N,Net-(IC1-Pad7)*
G04 #@! TO.C,2*
G36*
X181717621Y-102780778D02*
X181834108Y-102798058D01*
X181948342Y-102826672D01*
X182059220Y-102866345D01*
X182165676Y-102916694D01*
X182266684Y-102977236D01*
X182361272Y-103047387D01*
X182448528Y-103126472D01*
X182527613Y-103213728D01*
X182597764Y-103308316D01*
X182658306Y-103409324D01*
X182708655Y-103515780D01*
X182748328Y-103626658D01*
X182776942Y-103740892D01*
X182794222Y-103857379D01*
X182800000Y-103975000D01*
X182800000Y-105575000D01*
X182794222Y-105692621D01*
X182776942Y-105809108D01*
X182748328Y-105923342D01*
X182708655Y-106034220D01*
X182658306Y-106140676D01*
X182597764Y-106241684D01*
X182527613Y-106336272D01*
X182448528Y-106423528D01*
X182361272Y-106502613D01*
X182266684Y-106572764D01*
X182165676Y-106633306D01*
X182059220Y-106683655D01*
X181948342Y-106723328D01*
X181834108Y-106751942D01*
X181717621Y-106769222D01*
X181600000Y-106775000D01*
X176000000Y-106775000D01*
X175882379Y-106769222D01*
X175765892Y-106751942D01*
X175651658Y-106723328D01*
X175540780Y-106683655D01*
X175434324Y-106633306D01*
X175333316Y-106572764D01*
X175238728Y-106502613D01*
X175151472Y-106423528D01*
X175072387Y-106336272D01*
X175002236Y-106241684D01*
X174941694Y-106140676D01*
X174891345Y-106034220D01*
X174851672Y-105923342D01*
X174823058Y-105809108D01*
X174805778Y-105692621D01*
X174800000Y-105575000D01*
X174800000Y-103975000D01*
X174805778Y-103857379D01*
X174823058Y-103740892D01*
X174851672Y-103626658D01*
X174891345Y-103515780D01*
X174941694Y-103409324D01*
X175002236Y-103308316D01*
X175072387Y-103213728D01*
X175151472Y-103126472D01*
X175238728Y-103047387D01*
X175333316Y-102977236D01*
X175434324Y-102916694D01*
X175540780Y-102866345D01*
X175651658Y-102826672D01*
X175765892Y-102798058D01*
X175882379Y-102780778D01*
X176000000Y-102775000D01*
X181600000Y-102775000D01*
X181717621Y-102780778D01*
X181717621Y-102780778D01*
G37*
D20*
G04 #@! TD*
G04 #@! TO.P,2,1*
G04 #@! TO.N,Net-(IC1-Pad7)*
X178800000Y-104775000D03*
D19*
G04 #@! TO.N,Net-(IC1-Pad1)*
G04 #@! TO.C,5*
G36*
X181717621Y-95795778D02*
X181834108Y-95813058D01*
X181948342Y-95841672D01*
X182059220Y-95881345D01*
X182165676Y-95931694D01*
X182266684Y-95992236D01*
X182361272Y-96062387D01*
X182448528Y-96141472D01*
X182527613Y-96228728D01*
X182597764Y-96323316D01*
X182658306Y-96424324D01*
X182708655Y-96530780D01*
X182748328Y-96641658D01*
X182776942Y-96755892D01*
X182794222Y-96872379D01*
X182800000Y-96990000D01*
X182800000Y-98590000D01*
X182794222Y-98707621D01*
X182776942Y-98824108D01*
X182748328Y-98938342D01*
X182708655Y-99049220D01*
X182658306Y-99155676D01*
X182597764Y-99256684D01*
X182527613Y-99351272D01*
X182448528Y-99438528D01*
X182361272Y-99517613D01*
X182266684Y-99587764D01*
X182165676Y-99648306D01*
X182059220Y-99698655D01*
X181948342Y-99738328D01*
X181834108Y-99766942D01*
X181717621Y-99784222D01*
X181600000Y-99790000D01*
X176000000Y-99790000D01*
X175882379Y-99784222D01*
X175765892Y-99766942D01*
X175651658Y-99738328D01*
X175540780Y-99698655D01*
X175434324Y-99648306D01*
X175333316Y-99587764D01*
X175238728Y-99517613D01*
X175151472Y-99438528D01*
X175072387Y-99351272D01*
X175002236Y-99256684D01*
X174941694Y-99155676D01*
X174891345Y-99049220D01*
X174851672Y-98938342D01*
X174823058Y-98824108D01*
X174805778Y-98707621D01*
X174800000Y-98590000D01*
X174800000Y-96990000D01*
X174805778Y-96872379D01*
X174823058Y-96755892D01*
X174851672Y-96641658D01*
X174891345Y-96530780D01*
X174941694Y-96424324D01*
X175002236Y-96323316D01*
X175072387Y-96228728D01*
X175151472Y-96141472D01*
X175238728Y-96062387D01*
X175333316Y-95992236D01*
X175434324Y-95931694D01*
X175540780Y-95881345D01*
X175651658Y-95841672D01*
X175765892Y-95813058D01*
X175882379Y-95795778D01*
X176000000Y-95790000D01*
X181600000Y-95790000D01*
X181717621Y-95795778D01*
X181717621Y-95795778D01*
G37*
D20*
G04 #@! TD*
G04 #@! TO.P,5,1*
G04 #@! TO.N,Net-(IC1-Pad1)*
X178800000Y-97790000D03*
D19*
G04 #@! TO.N,Net-(IC1-Pad1)*
G04 #@! TO.C,5*
G36*
X186717621Y-95795778D02*
X186834108Y-95813058D01*
X186948342Y-95841672D01*
X187059220Y-95881345D01*
X187165676Y-95931694D01*
X187266684Y-95992236D01*
X187361272Y-96062387D01*
X187448528Y-96141472D01*
X187527613Y-96228728D01*
X187597764Y-96323316D01*
X187658306Y-96424324D01*
X187708655Y-96530780D01*
X187748328Y-96641658D01*
X187776942Y-96755892D01*
X187794222Y-96872379D01*
X187800000Y-96990000D01*
X187800000Y-98590000D01*
X187794222Y-98707621D01*
X187776942Y-98824108D01*
X187748328Y-98938342D01*
X187708655Y-99049220D01*
X187658306Y-99155676D01*
X187597764Y-99256684D01*
X187527613Y-99351272D01*
X187448528Y-99438528D01*
X187361272Y-99517613D01*
X187266684Y-99587764D01*
X187165676Y-99648306D01*
X187059220Y-99698655D01*
X186948342Y-99738328D01*
X186834108Y-99766942D01*
X186717621Y-99784222D01*
X186600000Y-99790000D01*
X181000000Y-99790000D01*
X180882379Y-99784222D01*
X180765892Y-99766942D01*
X180651658Y-99738328D01*
X180540780Y-99698655D01*
X180434324Y-99648306D01*
X180333316Y-99587764D01*
X180238728Y-99517613D01*
X180151472Y-99438528D01*
X180072387Y-99351272D01*
X180002236Y-99256684D01*
X179941694Y-99155676D01*
X179891345Y-99049220D01*
X179851672Y-98938342D01*
X179823058Y-98824108D01*
X179805778Y-98707621D01*
X179800000Y-98590000D01*
X179800000Y-96990000D01*
X179805778Y-96872379D01*
X179823058Y-96755892D01*
X179851672Y-96641658D01*
X179891345Y-96530780D01*
X179941694Y-96424324D01*
X180002236Y-96323316D01*
X180072387Y-96228728D01*
X180151472Y-96141472D01*
X180238728Y-96062387D01*
X180333316Y-95992236D01*
X180434324Y-95931694D01*
X180540780Y-95881345D01*
X180651658Y-95841672D01*
X180765892Y-95813058D01*
X180882379Y-95795778D01*
X181000000Y-95790000D01*
X186600000Y-95790000D01*
X186717621Y-95795778D01*
X186717621Y-95795778D01*
G37*
D20*
G04 #@! TD*
G04 #@! TO.P,5,1*
G04 #@! TO.N,Net-(IC1-Pad1)*
X183800000Y-97790000D03*
D19*
G04 #@! TO.N,GND*
G04 #@! TO.C,GND*
G36*
X186717621Y-88810778D02*
X186834108Y-88828058D01*
X186948342Y-88856672D01*
X187059220Y-88896345D01*
X187165676Y-88946694D01*
X187266684Y-89007236D01*
X187361272Y-89077387D01*
X187448528Y-89156472D01*
X187527613Y-89243728D01*
X187597764Y-89338316D01*
X187658306Y-89439324D01*
X187708655Y-89545780D01*
X187748328Y-89656658D01*
X187776942Y-89770892D01*
X187794222Y-89887379D01*
X187800000Y-90005000D01*
X187800000Y-91605000D01*
X187794222Y-91722621D01*
X187776942Y-91839108D01*
X187748328Y-91953342D01*
X187708655Y-92064220D01*
X187658306Y-92170676D01*
X187597764Y-92271684D01*
X187527613Y-92366272D01*
X187448528Y-92453528D01*
X187361272Y-92532613D01*
X187266684Y-92602764D01*
X187165676Y-92663306D01*
X187059220Y-92713655D01*
X186948342Y-92753328D01*
X186834108Y-92781942D01*
X186717621Y-92799222D01*
X186600000Y-92805000D01*
X181000000Y-92805000D01*
X180882379Y-92799222D01*
X180765892Y-92781942D01*
X180651658Y-92753328D01*
X180540780Y-92713655D01*
X180434324Y-92663306D01*
X180333316Y-92602764D01*
X180238728Y-92532613D01*
X180151472Y-92453528D01*
X180072387Y-92366272D01*
X180002236Y-92271684D01*
X179941694Y-92170676D01*
X179891345Y-92064220D01*
X179851672Y-91953342D01*
X179823058Y-91839108D01*
X179805778Y-91722621D01*
X179800000Y-91605000D01*
X179800000Y-90005000D01*
X179805778Y-89887379D01*
X179823058Y-89770892D01*
X179851672Y-89656658D01*
X179891345Y-89545780D01*
X179941694Y-89439324D01*
X180002236Y-89338316D01*
X180072387Y-89243728D01*
X180151472Y-89156472D01*
X180238728Y-89077387D01*
X180333316Y-89007236D01*
X180434324Y-88946694D01*
X180540780Y-88896345D01*
X180651658Y-88856672D01*
X180765892Y-88828058D01*
X180882379Y-88810778D01*
X181000000Y-88805000D01*
X186600000Y-88805000D01*
X186717621Y-88810778D01*
X186717621Y-88810778D01*
G37*
D20*
G04 #@! TD*
G04 #@! TO.P,GND,1*
G04 #@! TO.N,GND*
X183800000Y-90805000D03*
D19*
G04 #@! TO.N,GND*
G04 #@! TO.C,GND*
G36*
X181717621Y-88810778D02*
X181834108Y-88828058D01*
X181948342Y-88856672D01*
X182059220Y-88896345D01*
X182165676Y-88946694D01*
X182266684Y-89007236D01*
X182361272Y-89077387D01*
X182448528Y-89156472D01*
X182527613Y-89243728D01*
X182597764Y-89338316D01*
X182658306Y-89439324D01*
X182708655Y-89545780D01*
X182748328Y-89656658D01*
X182776942Y-89770892D01*
X182794222Y-89887379D01*
X182800000Y-90005000D01*
X182800000Y-91605000D01*
X182794222Y-91722621D01*
X182776942Y-91839108D01*
X182748328Y-91953342D01*
X182708655Y-92064220D01*
X182658306Y-92170676D01*
X182597764Y-92271684D01*
X182527613Y-92366272D01*
X182448528Y-92453528D01*
X182361272Y-92532613D01*
X182266684Y-92602764D01*
X182165676Y-92663306D01*
X182059220Y-92713655D01*
X181948342Y-92753328D01*
X181834108Y-92781942D01*
X181717621Y-92799222D01*
X181600000Y-92805000D01*
X176000000Y-92805000D01*
X175882379Y-92799222D01*
X175765892Y-92781942D01*
X175651658Y-92753328D01*
X175540780Y-92713655D01*
X175434324Y-92663306D01*
X175333316Y-92602764D01*
X175238728Y-92532613D01*
X175151472Y-92453528D01*
X175072387Y-92366272D01*
X175002236Y-92271684D01*
X174941694Y-92170676D01*
X174891345Y-92064220D01*
X174851672Y-91953342D01*
X174823058Y-91839108D01*
X174805778Y-91722621D01*
X174800000Y-91605000D01*
X174800000Y-90005000D01*
X174805778Y-89887379D01*
X174823058Y-89770892D01*
X174851672Y-89656658D01*
X174891345Y-89545780D01*
X174941694Y-89439324D01*
X175002236Y-89338316D01*
X175072387Y-89243728D01*
X175151472Y-89156472D01*
X175238728Y-89077387D01*
X175333316Y-89007236D01*
X175434324Y-88946694D01*
X175540780Y-88896345D01*
X175651658Y-88856672D01*
X175765892Y-88828058D01*
X175882379Y-88810778D01*
X176000000Y-88805000D01*
X181600000Y-88805000D01*
X181717621Y-88810778D01*
X181717621Y-88810778D01*
G37*
D20*
G04 #@! TD*
G04 #@! TO.P,GND,1*
G04 #@! TO.N,GND*
X178800000Y-90805000D03*
D21*
G04 #@! TO.N,GND*
X178800000Y-90805000D02*
X183800000Y-90805000D01*
G04 #@! TO.N,5V*
X169545000Y-100330000D02*
X169545000Y-103505000D01*
X169545000Y-103505000D02*
X169545000Y-106680000D01*
X169545000Y-106680000D02*
X169545000Y-109855000D01*
X149860000Y-96520000D02*
X153670000Y-96520000D01*
X153670000Y-97705393D02*
X153670000Y-96520000D01*
X153670000Y-100768000D02*
X153670000Y-97705393D01*
X154502000Y-101600000D02*
X153670000Y-100768000D01*
X149225000Y-113665000D02*
X152400000Y-113665000D01*
X146354799Y-110794799D02*
X149225000Y-113665000D01*
X144780000Y-109855000D02*
X145719799Y-110794799D01*
X145719799Y-110794799D02*
X146354799Y-110794799D01*
X152400000Y-112479607D02*
X152400000Y-113665000D01*
X152400000Y-103702000D02*
X152400000Y-112479607D01*
X154502000Y-101600000D02*
X152400000Y-103702000D01*
X156210000Y-101600000D02*
X154502000Y-101600000D01*
G04 #@! TO.N,Net-(D1-PadC)*
X133290923Y-97790000D02*
X132715000Y-98365923D01*
X134620000Y-97790000D02*
X133290923Y-97790000D01*
X132715000Y-98365923D02*
X132715000Y-102870000D01*
X132715000Y-102870000D02*
X133350000Y-103505000D01*
X133350000Y-103505000D02*
X134620000Y-103505000D01*
X132675000Y-104180000D02*
X133350000Y-103505000D01*
X130175000Y-104180000D02*
X132675000Y-104180000D01*
X136525000Y-109855000D02*
X134620000Y-109855000D01*
X137160000Y-109220000D02*
X136525000Y-109855000D01*
X137160000Y-104775000D02*
X137160000Y-109220000D01*
X134620000Y-103505000D02*
X135890000Y-103505000D01*
X135890000Y-103505000D02*
X137160000Y-104775000D01*
G04 #@! TO.N,Net-(IC1-Pad7)*
X158750000Y-104140000D02*
X159385000Y-103505000D01*
X156210000Y-104140000D02*
X158750000Y-104140000D01*
X160324799Y-102565201D02*
X162864799Y-102565201D01*
X159385000Y-103505000D02*
X160324799Y-102565201D01*
X162864799Y-102565201D02*
X167005000Y-98425000D01*
X167005000Y-98425000D02*
X171450000Y-98425000D01*
X171450000Y-98425000D02*
X172720000Y-99695000D01*
X172720000Y-99695000D02*
X172720000Y-103505000D01*
X173990000Y-104775000D02*
X178800000Y-104775000D01*
X172720000Y-103505000D02*
X173990000Y-104775000D01*
X178800000Y-104775000D02*
X183800000Y-104775000D01*
G04 #@! TO.N,Net-(IC1-Pad6)*
X156210000Y-106680000D02*
X159385000Y-106680000D01*
X160324799Y-107619799D02*
X162864799Y-107619799D01*
X159385000Y-106680000D02*
X160324799Y-107619799D01*
X162864799Y-107619799D02*
X167005000Y-111760000D01*
X167005000Y-111760000D02*
X178800000Y-111760000D01*
X178800000Y-111760000D02*
X183800000Y-111760000D01*
G04 #@! TO.N,Net-(IC1-Pad5)*
X158750000Y-109220000D02*
X159385000Y-109855000D01*
X156210000Y-109220000D02*
X158750000Y-109220000D01*
X178800000Y-118745000D02*
X183800000Y-118745000D01*
X174700000Y-118745000D02*
X172669200Y-116714200D01*
X178800000Y-118745000D02*
X174700000Y-118745000D01*
X172669200Y-116714200D02*
X172669200Y-113842800D01*
X172669200Y-113842800D02*
X171856400Y-113030000D01*
X164566600Y-113030000D02*
X161391600Y-109855000D01*
X171856400Y-113030000D02*
X164566600Y-113030000D01*
X159385000Y-109855000D02*
X161391600Y-109855000D01*
G04 #@! TO.N,Net-(IC1-Pad3)*
X144780000Y-106680000D02*
X148590000Y-106680000D01*
G04 #@! TO.N,Net-(IC1-Pad2)*
X147955000Y-103505000D02*
X148590000Y-104140000D01*
X144780000Y-103505000D02*
X147955000Y-103505000D01*
G04 #@! TO.N,Net-(IC1-Pad1)*
X160324799Y-99390201D02*
X163499799Y-99390201D01*
X159385000Y-100330000D02*
X160324799Y-99390201D01*
X163499799Y-99390201D02*
X165735000Y-97155000D01*
X165735000Y-97155000D02*
X173990000Y-97155000D01*
X174625000Y-97790000D02*
X178800000Y-97790000D01*
X173990000Y-97155000D02*
X174625000Y-97790000D01*
X178800000Y-97790000D02*
X183800000Y-97790000D01*
G04 #@! TO.N,Net-(ON1-PadK)*
X147955000Y-116205000D02*
X152400000Y-116205000D01*
X144780000Y-113030000D02*
X147955000Y-116205000D01*
G04 #@! TD*
D22*
G04 #@! TO.N,GND*
G36*
X174165000Y-88678691D02*
X174165000Y-90519250D01*
X174323750Y-90678000D01*
X178673000Y-90678000D01*
X178673000Y-90658000D01*
X178927000Y-90658000D01*
X178927000Y-90678000D01*
X183673000Y-90678000D01*
X183673000Y-90658000D01*
X183927000Y-90658000D01*
X183927000Y-90678000D01*
X183947000Y-90678000D01*
X183947000Y-90932000D01*
X183927000Y-90932000D01*
X183927000Y-93281250D01*
X184085750Y-93440000D01*
X187391601Y-93440000D01*
X187391601Y-95461921D01*
X187267342Y-95378894D01*
X186600000Y-95246151D01*
X176000000Y-95246151D01*
X175332658Y-95378894D01*
X174766913Y-95756913D01*
X174388894Y-96322658D01*
X174362228Y-96456717D01*
X174297228Y-96413285D01*
X174067552Y-96367600D01*
X174067551Y-96367600D01*
X173990000Y-96352174D01*
X173912449Y-96367600D01*
X165812553Y-96367600D01*
X165735000Y-96352174D01*
X165427771Y-96413285D01*
X165384126Y-96442448D01*
X165167316Y-96587316D01*
X165123386Y-96653062D01*
X163173648Y-98602801D01*
X160402349Y-98602801D01*
X160324798Y-98587375D01*
X160247247Y-98602801D01*
X160017571Y-98648486D01*
X160017570Y-98648487D01*
X160017569Y-98648487D01*
X159980657Y-98673151D01*
X159757115Y-98822517D01*
X159722032Y-98875023D01*
X159678038Y-98856800D01*
X159091962Y-98856800D01*
X158550499Y-99081081D01*
X158136081Y-99495499D01*
X157911800Y-100036962D01*
X157911800Y-100623038D01*
X158136081Y-101164501D01*
X158550499Y-101578919D01*
X159091962Y-101803200D01*
X159678038Y-101803200D01*
X160219501Y-101578919D01*
X160633919Y-101164501D01*
X160858200Y-100623038D01*
X160858200Y-100177601D01*
X163422248Y-100177601D01*
X163499799Y-100193027D01*
X163577350Y-100177601D01*
X163577351Y-100177601D01*
X163807027Y-100131916D01*
X164067483Y-99957885D01*
X164111415Y-99892136D01*
X166061152Y-97942400D01*
X166374048Y-97942400D01*
X162538648Y-101777801D01*
X160402349Y-101777801D01*
X160324798Y-101762375D01*
X160247247Y-101777801D01*
X160017571Y-101823486D01*
X160017570Y-101823487D01*
X160017569Y-101823487D01*
X159924903Y-101885405D01*
X159757115Y-101997517D01*
X159722032Y-102050023D01*
X159678038Y-102031800D01*
X159091962Y-102031800D01*
X158550499Y-102256081D01*
X158136081Y-102670499D01*
X157911800Y-103211962D01*
X157911800Y-103352600D01*
X157687542Y-103352600D01*
X157571327Y-103178673D01*
X157130267Y-102883965D01*
X157060060Y-102870000D01*
X157130267Y-102856035D01*
X157571327Y-102561327D01*
X157866035Y-102120267D01*
X157969522Y-101600000D01*
X157866035Y-101079733D01*
X157571327Y-100638673D01*
X157130267Y-100343965D01*
X156741325Y-100266600D01*
X155678675Y-100266600D01*
X155289733Y-100343965D01*
X154848673Y-100638673D01*
X154770788Y-100755236D01*
X154457400Y-100441849D01*
X154457400Y-97672335D01*
X154574322Y-97555413D01*
X155354192Y-97555413D01*
X155433017Y-97805490D01*
X155984097Y-98004977D01*
X156569569Y-97978389D01*
X156986983Y-97805490D01*
X157065808Y-97555413D01*
X156210000Y-96699605D01*
X155354192Y-97555413D01*
X154574322Y-97555413D01*
X154832786Y-97296949D01*
X154878641Y-97186246D01*
X154924510Y-97296983D01*
X155174587Y-97375808D01*
X156030395Y-96520000D01*
X156389605Y-96520000D01*
X157245413Y-97375808D01*
X157495490Y-97296983D01*
X157694977Y-96745903D01*
X157668389Y-96160431D01*
X157495490Y-95743017D01*
X157245413Y-95664192D01*
X156389605Y-96520000D01*
X156030395Y-96520000D01*
X155174587Y-95664192D01*
X154924510Y-95743017D01*
X154881727Y-95861205D01*
X154832786Y-95743051D01*
X154574322Y-95484587D01*
X155354192Y-95484587D01*
X156210000Y-96340395D01*
X157065808Y-95484587D01*
X156986983Y-95234510D01*
X156435903Y-95035023D01*
X155850431Y-95061611D01*
X155433017Y-95234510D01*
X155354192Y-95484587D01*
X154574322Y-95484587D01*
X154446949Y-95357214D01*
X153942828Y-95148400D01*
X153397172Y-95148400D01*
X152893051Y-95357214D01*
X152517665Y-95732600D01*
X151203849Y-95732600D01*
X151203849Y-95720000D01*
X151162451Y-95511878D01*
X151044559Y-95335441D01*
X150868122Y-95217549D01*
X150660000Y-95176151D01*
X149060000Y-95176151D01*
X148851878Y-95217549D01*
X148675441Y-95335441D01*
X148557549Y-95511878D01*
X148516151Y-95720000D01*
X148516151Y-95736563D01*
X148367745Y-95691861D01*
X147539605Y-96520000D01*
X148367745Y-97348139D01*
X148516151Y-97303437D01*
X148516151Y-97320000D01*
X148557549Y-97528122D01*
X148675441Y-97704559D01*
X148851878Y-97822451D01*
X149060000Y-97863849D01*
X150660000Y-97863849D01*
X150868122Y-97822451D01*
X151044559Y-97704559D01*
X151162451Y-97528122D01*
X151203849Y-97320000D01*
X151203849Y-97307400D01*
X152517665Y-97307400D01*
X152882600Y-97672335D01*
X152882600Y-97782944D01*
X152882601Y-97782949D01*
X152882600Y-100690449D01*
X152867174Y-100768000D01*
X152882600Y-100845551D01*
X152928285Y-101075227D01*
X153102316Y-101335684D01*
X153168065Y-101379616D01*
X153388448Y-101600000D01*
X151898065Y-103090384D01*
X151832316Y-103134316D01*
X151658285Y-103394773D01*
X151622970Y-103572316D01*
X151597174Y-103702000D01*
X151612600Y-103779551D01*
X151612601Y-112402051D01*
X151612600Y-112402056D01*
X151612600Y-112512665D01*
X151247665Y-112877600D01*
X149551152Y-112877600D01*
X146966415Y-110292864D01*
X146922483Y-110227115D01*
X146662027Y-110053084D01*
X146432351Y-110007399D01*
X146432350Y-110007399D01*
X146354799Y-109991973D01*
X146277248Y-110007399D01*
X146253200Y-110007399D01*
X146253200Y-109569039D01*
X146798096Y-109569039D01*
X146815633Y-109651819D01*
X147085500Y-110144896D01*
X147523517Y-110497166D01*
X148063000Y-110655000D01*
X148463000Y-110655000D01*
X148463000Y-109347000D01*
X148717000Y-109347000D01*
X148717000Y-110655000D01*
X149117000Y-110655000D01*
X149656483Y-110497166D01*
X150094500Y-110144896D01*
X150364367Y-109651819D01*
X150381904Y-109569039D01*
X150259915Y-109347000D01*
X148717000Y-109347000D01*
X148463000Y-109347000D01*
X146920085Y-109347000D01*
X146798096Y-109569039D01*
X146253200Y-109569039D01*
X146253200Y-109561962D01*
X146028919Y-109020499D01*
X145614501Y-108606081D01*
X145073038Y-108381800D01*
X144486962Y-108381800D01*
X143945499Y-108606081D01*
X143531081Y-109020499D01*
X143306800Y-109561962D01*
X143306800Y-110148038D01*
X143531081Y-110689501D01*
X143945499Y-111103919D01*
X144486962Y-111328200D01*
X145073038Y-111328200D01*
X145117032Y-111309977D01*
X145152115Y-111362483D01*
X145274047Y-111443955D01*
X145412569Y-111536513D01*
X145412570Y-111536513D01*
X145412571Y-111536514D01*
X145642247Y-111582199D01*
X145719798Y-111597625D01*
X145797349Y-111582199D01*
X146028648Y-111582199D01*
X148613386Y-114166938D01*
X148657316Y-114232684D01*
X148917772Y-114406715D01*
X149147448Y-114452400D01*
X149224999Y-114467826D01*
X149302550Y-114452400D01*
X151247665Y-114452400D01*
X151623051Y-114827786D01*
X151881888Y-114935000D01*
X151623051Y-115042214D01*
X151247665Y-115417600D01*
X148281152Y-115417600D01*
X146233690Y-113370139D01*
X146253200Y-113323038D01*
X146253200Y-112736962D01*
X146028919Y-112195499D01*
X145614501Y-111781081D01*
X145073038Y-111556800D01*
X144486962Y-111556800D01*
X143945499Y-111781081D01*
X143531081Y-112195499D01*
X143306800Y-112736962D01*
X143306800Y-113323038D01*
X143531081Y-113864501D01*
X143945499Y-114278919D01*
X144486962Y-114503200D01*
X145073038Y-114503200D01*
X145120139Y-114483690D01*
X147343386Y-116706938D01*
X147387316Y-116772684D01*
X147647772Y-116946715D01*
X147877448Y-116992400D01*
X147954999Y-117007826D01*
X148032550Y-116992400D01*
X151247665Y-116992400D01*
X151623051Y-117367786D01*
X152127172Y-117576600D01*
X152672828Y-117576600D01*
X153176949Y-117367786D01*
X153469095Y-117075640D01*
X165366600Y-117075640D01*
X165366600Y-117924360D01*
X165691391Y-118708474D01*
X166291526Y-119308609D01*
X167075640Y-119633400D01*
X167924360Y-119633400D01*
X168708474Y-119308609D01*
X169308609Y-118708474D01*
X169633400Y-117924360D01*
X169633400Y-117075640D01*
X169308609Y-116291526D01*
X168708474Y-115691391D01*
X167924360Y-115366600D01*
X167075640Y-115366600D01*
X166291526Y-115691391D01*
X165691391Y-116291526D01*
X165366600Y-117075640D01*
X153469095Y-117075640D01*
X153562786Y-116981949D01*
X153771600Y-116477828D01*
X153771600Y-115932172D01*
X153562786Y-115428051D01*
X153176949Y-115042214D01*
X152918112Y-114935000D01*
X153176949Y-114827786D01*
X153562786Y-114441949D01*
X153771600Y-113937828D01*
X153771600Y-113392172D01*
X153562786Y-112888051D01*
X153187400Y-112512665D01*
X153187400Y-104028151D01*
X154770788Y-102444764D01*
X154848673Y-102561327D01*
X155289733Y-102856035D01*
X155359940Y-102870000D01*
X155289733Y-102883965D01*
X154848673Y-103178673D01*
X154553965Y-103619733D01*
X154450478Y-104140000D01*
X154553965Y-104660267D01*
X154848673Y-105101327D01*
X155289733Y-105396035D01*
X155359940Y-105410000D01*
X155289733Y-105423965D01*
X154848673Y-105718673D01*
X154553965Y-106159733D01*
X154450478Y-106680000D01*
X154553965Y-107200267D01*
X154848673Y-107641327D01*
X155289733Y-107936035D01*
X155359940Y-107950000D01*
X155289733Y-107963965D01*
X154848673Y-108258673D01*
X154553965Y-108699733D01*
X154450478Y-109220000D01*
X154553965Y-109740267D01*
X154848673Y-110181327D01*
X155289733Y-110476035D01*
X155678675Y-110553400D01*
X156741325Y-110553400D01*
X157130267Y-110476035D01*
X157571327Y-110181327D01*
X157687542Y-110007400D01*
X157911800Y-110007400D01*
X157911800Y-110148038D01*
X158136081Y-110689501D01*
X158550499Y-111103919D01*
X159091962Y-111328200D01*
X159678038Y-111328200D01*
X160219501Y-111103919D01*
X160633919Y-110689501D01*
X160653429Y-110642400D01*
X161065449Y-110642400D01*
X163954986Y-113531938D01*
X163998916Y-113597684D01*
X164259372Y-113771715D01*
X164489048Y-113817400D01*
X164566599Y-113832826D01*
X164644150Y-113817400D01*
X171530249Y-113817400D01*
X171881801Y-114168953D01*
X171881800Y-116636649D01*
X171866374Y-116714200D01*
X171881800Y-116791751D01*
X171927485Y-117021427D01*
X172101516Y-117281884D01*
X172167265Y-117325816D01*
X174088386Y-119246938D01*
X174132316Y-119312684D01*
X174256151Y-119395428D01*
X174256151Y-119545000D01*
X174388894Y-120212342D01*
X174521099Y-120410200D01*
X123575750Y-120410200D01*
X123575750Y-117075640D01*
X125366600Y-117075640D01*
X125366600Y-117924360D01*
X125691391Y-118708474D01*
X126291526Y-119308609D01*
X127075640Y-119633400D01*
X127924360Y-119633400D01*
X128708474Y-119308609D01*
X129308609Y-118708474D01*
X129633400Y-117924360D01*
X129633400Y-117075640D01*
X129308609Y-116291526D01*
X128708474Y-115691391D01*
X127924360Y-115366600D01*
X127075640Y-115366600D01*
X126291526Y-115691391D01*
X125691391Y-116291526D01*
X125366600Y-117075640D01*
X123575750Y-117075640D01*
X123575750Y-114138968D01*
X133690637Y-114138968D01*
X133781923Y-114399580D01*
X134369833Y-114616045D01*
X134995828Y-114591049D01*
X135458077Y-114399580D01*
X135549363Y-114138968D01*
X134620000Y-113209605D01*
X133690637Y-114138968D01*
X123575750Y-114138968D01*
X123575750Y-113144528D01*
X123950077Y-113144528D01*
X124140364Y-113489271D01*
X125021591Y-113840956D01*
X125970323Y-113828641D01*
X126789636Y-113489271D01*
X126979923Y-113144528D01*
X125465000Y-111629605D01*
X123950077Y-113144528D01*
X123575750Y-113144528D01*
X123575750Y-112857443D01*
X123770472Y-112964923D01*
X125285395Y-111450000D01*
X125644605Y-111450000D01*
X127159528Y-112964923D01*
X127494855Y-112779833D01*
X133033955Y-112779833D01*
X133058951Y-113405828D01*
X133250420Y-113868077D01*
X133511032Y-113959363D01*
X134440395Y-113030000D01*
X134799605Y-113030000D01*
X135728968Y-113959363D01*
X135989580Y-113868077D01*
X136206045Y-113280167D01*
X136181049Y-112654172D01*
X135989580Y-112191923D01*
X135728968Y-112100637D01*
X134799605Y-113030000D01*
X134440395Y-113030000D01*
X133511032Y-112100637D01*
X133250420Y-112191923D01*
X133033955Y-112779833D01*
X127494855Y-112779833D01*
X127504271Y-112774636D01*
X127844932Y-111921032D01*
X133690637Y-111921032D01*
X134620000Y-112850395D01*
X135549363Y-111921032D01*
X135458077Y-111660420D01*
X134870167Y-111443955D01*
X134244172Y-111468951D01*
X133781923Y-111660420D01*
X133690637Y-111921032D01*
X127844932Y-111921032D01*
X127855956Y-111893409D01*
X127843641Y-110944677D01*
X127504271Y-110125364D01*
X127159528Y-109935077D01*
X125644605Y-111450000D01*
X125285395Y-111450000D01*
X123770472Y-109935077D01*
X123575750Y-110042557D01*
X123575750Y-109755472D01*
X123950077Y-109755472D01*
X125465000Y-111270395D01*
X126979923Y-109755472D01*
X126789636Y-109410729D01*
X125908409Y-109059044D01*
X124959677Y-109071359D01*
X124140364Y-109410729D01*
X123950077Y-109755472D01*
X123575750Y-109755472D01*
X123575750Y-106451279D01*
X126678282Y-106451279D01*
X126704685Y-107041458D01*
X126879741Y-107464080D01*
X127131042Y-107544353D01*
X127995395Y-106680000D01*
X127131042Y-105815647D01*
X126879741Y-105895920D01*
X126678282Y-106451279D01*
X123575750Y-106451279D01*
X123575750Y-103904825D01*
X126791600Y-103904825D01*
X126791600Y-104455175D01*
X127002210Y-104963633D01*
X127391367Y-105352790D01*
X127429712Y-105368673D01*
X127390920Y-105384741D01*
X127310647Y-105636042D01*
X128175000Y-106500395D01*
X128189143Y-106486253D01*
X128368748Y-106665858D01*
X128354605Y-106680000D01*
X128368748Y-106694143D01*
X128189143Y-106873748D01*
X128175000Y-106859605D01*
X127310647Y-107723958D01*
X127390920Y-107975259D01*
X127946279Y-108176718D01*
X128536458Y-108150315D01*
X128959080Y-107975259D01*
X128971780Y-107935499D01*
X129116878Y-108032451D01*
X129325000Y-108073849D01*
X131025000Y-108073849D01*
X131233122Y-108032451D01*
X131409559Y-107914559D01*
X131527451Y-107738122D01*
X131568849Y-107530000D01*
X131568849Y-106386962D01*
X133146800Y-106386962D01*
X133146800Y-106973038D01*
X133371081Y-107514501D01*
X133785499Y-107928919D01*
X134326962Y-108153200D01*
X134913038Y-108153200D01*
X135454501Y-107928919D01*
X135868919Y-107514501D01*
X136093200Y-106973038D01*
X136093200Y-106386962D01*
X135868919Y-105845499D01*
X135454501Y-105431081D01*
X134913038Y-105206800D01*
X134326962Y-105206800D01*
X133785499Y-105431081D01*
X133371081Y-105845499D01*
X133146800Y-106386962D01*
X131568849Y-106386962D01*
X131568849Y-105830000D01*
X131527451Y-105621878D01*
X131409559Y-105445441D01*
X131233122Y-105327549D01*
X131025227Y-105286196D01*
X131344023Y-104967400D01*
X132597449Y-104967400D01*
X132675000Y-104982826D01*
X132752551Y-104967400D01*
X132752552Y-104967400D01*
X132982228Y-104921715D01*
X133242684Y-104747684D01*
X133286616Y-104681935D01*
X133500066Y-104468486D01*
X133785499Y-104753919D01*
X134326962Y-104978200D01*
X134913038Y-104978200D01*
X135454501Y-104753919D01*
X135739934Y-104468486D01*
X136372600Y-105101152D01*
X136372601Y-108893847D01*
X136198849Y-109067600D01*
X135888429Y-109067600D01*
X135868919Y-109020499D01*
X135454501Y-108606081D01*
X134913038Y-108381800D01*
X134326962Y-108381800D01*
X133785499Y-108606081D01*
X133371081Y-109020499D01*
X133146800Y-109561962D01*
X133146800Y-110148038D01*
X133371081Y-110689501D01*
X133785499Y-111103919D01*
X134326962Y-111328200D01*
X134913038Y-111328200D01*
X135454501Y-111103919D01*
X135868919Y-110689501D01*
X135888429Y-110642400D01*
X136447449Y-110642400D01*
X136525000Y-110657826D01*
X136602551Y-110642400D01*
X136602552Y-110642400D01*
X136832228Y-110596715D01*
X137092684Y-110422684D01*
X137136616Y-110356935D01*
X137661937Y-109831614D01*
X137727684Y-109787684D01*
X137901715Y-109527228D01*
X137947400Y-109297552D01*
X137947400Y-109297551D01*
X137962826Y-109220000D01*
X137947400Y-109142449D01*
X137947400Y-104852550D01*
X137962826Y-104774999D01*
X137909085Y-104504826D01*
X137901715Y-104467772D01*
X137727684Y-104207316D01*
X137661938Y-104163386D01*
X136710514Y-103211962D01*
X143306800Y-103211962D01*
X143306800Y-103798038D01*
X143531081Y-104339501D01*
X143945499Y-104753919D01*
X144486962Y-104978200D01*
X145073038Y-104978200D01*
X145614501Y-104753919D01*
X146028919Y-104339501D01*
X146048429Y-104292400D01*
X146860792Y-104292400D01*
X146933965Y-104660267D01*
X147228673Y-105101327D01*
X147669733Y-105396035D01*
X147739940Y-105410000D01*
X147669733Y-105423965D01*
X147228673Y-105718673D01*
X147112458Y-105892600D01*
X146048429Y-105892600D01*
X146028919Y-105845499D01*
X145614501Y-105431081D01*
X145073038Y-105206800D01*
X144486962Y-105206800D01*
X143945499Y-105431081D01*
X143531081Y-105845499D01*
X143306800Y-106386962D01*
X143306800Y-106973038D01*
X143531081Y-107514501D01*
X143945499Y-107928919D01*
X144486962Y-108153200D01*
X145073038Y-108153200D01*
X145614501Y-107928919D01*
X146028919Y-107514501D01*
X146048429Y-107467400D01*
X147112458Y-107467400D01*
X147228673Y-107641327D01*
X147632284Y-107911012D01*
X147523517Y-107942834D01*
X147085500Y-108295104D01*
X146815633Y-108788181D01*
X146798096Y-108870961D01*
X146920085Y-109093000D01*
X148463000Y-109093000D01*
X148463000Y-109073000D01*
X148717000Y-109073000D01*
X148717000Y-109093000D01*
X150259915Y-109093000D01*
X150381904Y-108870961D01*
X150364367Y-108788181D01*
X150094500Y-108295104D01*
X149656483Y-107942834D01*
X149547716Y-107911012D01*
X149951327Y-107641327D01*
X150246035Y-107200267D01*
X150349522Y-106680000D01*
X150246035Y-106159733D01*
X149951327Y-105718673D01*
X149510267Y-105423965D01*
X149440060Y-105410000D01*
X149510267Y-105396035D01*
X149951327Y-105101327D01*
X150246035Y-104660267D01*
X150349522Y-104140000D01*
X150246035Y-103619733D01*
X149951327Y-103178673D01*
X149599889Y-102943849D01*
X149790000Y-102943849D01*
X149998122Y-102902451D01*
X150174559Y-102784559D01*
X150292451Y-102608122D01*
X150333849Y-102400000D01*
X150333849Y-100800000D01*
X150292451Y-100591878D01*
X150174559Y-100415441D01*
X149998122Y-100297549D01*
X149790000Y-100256151D01*
X147390000Y-100256151D01*
X147181878Y-100297549D01*
X147005441Y-100415441D01*
X146887549Y-100591878D01*
X146846151Y-100800000D01*
X146846151Y-102400000D01*
X146887549Y-102608122D01*
X146960700Y-102717600D01*
X146048429Y-102717600D01*
X146028919Y-102670499D01*
X145614501Y-102256081D01*
X145073038Y-102031800D01*
X144486962Y-102031800D01*
X143945499Y-102256081D01*
X143531081Y-102670499D01*
X143306800Y-103211962D01*
X136710514Y-103211962D01*
X136501616Y-103003065D01*
X136457684Y-102937316D01*
X136197228Y-102763285D01*
X135967552Y-102717600D01*
X135967551Y-102717600D01*
X135890000Y-102702174D01*
X135882645Y-102703637D01*
X135868919Y-102670499D01*
X135454501Y-102256081D01*
X134913038Y-102031800D01*
X134326962Y-102031800D01*
X133785499Y-102256081D01*
X133502400Y-102539180D01*
X133502400Y-101295820D01*
X133785499Y-101578919D01*
X134326962Y-101803200D01*
X134913038Y-101803200D01*
X135454501Y-101578919D01*
X135594452Y-101438968D01*
X141310637Y-101438968D01*
X141401923Y-101699580D01*
X141989833Y-101916045D01*
X142615828Y-101891049D01*
X143078077Y-101699580D01*
X143169363Y-101438968D01*
X142240000Y-100509605D01*
X141310637Y-101438968D01*
X135594452Y-101438968D01*
X135868919Y-101164501D01*
X136093200Y-100623038D01*
X136093200Y-100079833D01*
X140653955Y-100079833D01*
X140678951Y-100705828D01*
X140870420Y-101168077D01*
X141131032Y-101259363D01*
X142060395Y-100330000D01*
X142419605Y-100330000D01*
X143348968Y-101259363D01*
X143609580Y-101168077D01*
X143826045Y-100580167D01*
X143801049Y-99954172D01*
X143609580Y-99491923D01*
X143348968Y-99400637D01*
X142419605Y-100330000D01*
X142060395Y-100330000D01*
X141131032Y-99400637D01*
X140870420Y-99491923D01*
X140653955Y-100079833D01*
X136093200Y-100079833D01*
X136093200Y-100036962D01*
X135868919Y-99495499D01*
X135454501Y-99081081D01*
X135403607Y-99060000D01*
X135454501Y-99038919D01*
X135594452Y-98898968D01*
X141310637Y-98898968D01*
X141367043Y-99060000D01*
X141310637Y-99221032D01*
X142240000Y-100150395D01*
X143169363Y-99221032D01*
X143112957Y-99060000D01*
X143169363Y-98898968D01*
X142240000Y-97969605D01*
X141310637Y-98898968D01*
X135594452Y-98898968D01*
X135868919Y-98624501D01*
X136093200Y-98083038D01*
X136093200Y-97539833D01*
X140653955Y-97539833D01*
X140678951Y-98165828D01*
X140870420Y-98628077D01*
X141131032Y-98719363D01*
X142060395Y-97790000D01*
X142419605Y-97790000D01*
X143348968Y-98719363D01*
X143609580Y-98628077D01*
X143826045Y-98040167D01*
X143805584Y-97527745D01*
X146531861Y-97527745D01*
X146605995Y-97773864D01*
X147143223Y-97966965D01*
X147713454Y-97939778D01*
X148114005Y-97773864D01*
X148188139Y-97527745D01*
X147360000Y-96699605D01*
X146531861Y-97527745D01*
X143805584Y-97527745D01*
X143801049Y-97414172D01*
X143609580Y-96951923D01*
X143348968Y-96860637D01*
X142419605Y-97790000D01*
X142060395Y-97790000D01*
X141131032Y-96860637D01*
X140870420Y-96951923D01*
X140653955Y-97539833D01*
X136093200Y-97539833D01*
X136093200Y-97496962D01*
X135868919Y-96955499D01*
X135594452Y-96681032D01*
X141310637Y-96681032D01*
X142240000Y-97610395D01*
X143169363Y-96681032D01*
X143078077Y-96420420D01*
X142759775Y-96303223D01*
X145913035Y-96303223D01*
X145940222Y-96873454D01*
X146106136Y-97274005D01*
X146352255Y-97348139D01*
X147180395Y-96520000D01*
X146352255Y-95691861D01*
X146106136Y-95765995D01*
X145913035Y-96303223D01*
X142759775Y-96303223D01*
X142490167Y-96203955D01*
X141864172Y-96228951D01*
X141401923Y-96420420D01*
X141310637Y-96681032D01*
X135594452Y-96681032D01*
X135454501Y-96541081D01*
X134913038Y-96316800D01*
X134326962Y-96316800D01*
X133785499Y-96541081D01*
X133371081Y-96955499D01*
X133352858Y-96999494D01*
X133290922Y-96987174D01*
X133213371Y-97002600D01*
X132983695Y-97048285D01*
X132723239Y-97222316D01*
X132679310Y-97288061D01*
X132213065Y-97754307D01*
X132147316Y-97798239D01*
X131973285Y-98058696D01*
X131930642Y-98273077D01*
X131912174Y-98365923D01*
X131927600Y-98443474D01*
X131927601Y-102792444D01*
X131912174Y-102870000D01*
X131964466Y-103132885D01*
X131973286Y-103177228D01*
X132117193Y-103392600D01*
X131344023Y-103392600D01*
X130958633Y-103007210D01*
X130450175Y-102796600D01*
X129899825Y-102796600D01*
X129391367Y-103007210D01*
X129175000Y-103223577D01*
X128958633Y-103007210D01*
X128450175Y-102796600D01*
X127899825Y-102796600D01*
X127391367Y-103007210D01*
X127002210Y-103396367D01*
X126791600Y-103904825D01*
X123575750Y-103904825D01*
X123575750Y-101104528D01*
X123950077Y-101104528D01*
X124140364Y-101449271D01*
X125021591Y-101800956D01*
X125970323Y-101788641D01*
X126789636Y-101449271D01*
X126979923Y-101104528D01*
X125465000Y-99589605D01*
X123950077Y-101104528D01*
X123575750Y-101104528D01*
X123575750Y-100817443D01*
X123770472Y-100924923D01*
X125285395Y-99410000D01*
X125644605Y-99410000D01*
X127159528Y-100924923D01*
X127504271Y-100734636D01*
X127855956Y-99853409D01*
X127843641Y-98904677D01*
X127504271Y-98085364D01*
X127159528Y-97895077D01*
X125644605Y-99410000D01*
X125285395Y-99410000D01*
X123770472Y-97895077D01*
X123575750Y-98002557D01*
X123575750Y-97715472D01*
X123950077Y-97715472D01*
X125465000Y-99230395D01*
X126979923Y-97715472D01*
X126789636Y-97370729D01*
X125908409Y-97019044D01*
X124959677Y-97031359D01*
X124140364Y-97370729D01*
X123950077Y-97715472D01*
X123575750Y-97715472D01*
X123575750Y-95512255D01*
X146531861Y-95512255D01*
X147360000Y-96340395D01*
X148188139Y-95512255D01*
X148114005Y-95266136D01*
X147576777Y-95073035D01*
X147006546Y-95100222D01*
X146605995Y-95266136D01*
X146531861Y-95512255D01*
X123575750Y-95512255D01*
X123575750Y-91575640D01*
X125366600Y-91575640D01*
X125366600Y-92424360D01*
X125691391Y-93208474D01*
X126291526Y-93808609D01*
X127075640Y-94133400D01*
X127924360Y-94133400D01*
X128708474Y-93808609D01*
X129308609Y-93208474D01*
X129633400Y-92424360D01*
X129633400Y-91575640D01*
X165366600Y-91575640D01*
X165366600Y-92424360D01*
X165691391Y-93208474D01*
X166291526Y-93808609D01*
X167075640Y-94133400D01*
X167924360Y-94133400D01*
X168708474Y-93808609D01*
X169308609Y-93208474D01*
X169633400Y-92424360D01*
X169633400Y-91575640D01*
X169432552Y-91090750D01*
X174165000Y-91090750D01*
X174165000Y-92931309D01*
X174261673Y-93164698D01*
X174440301Y-93343327D01*
X174673690Y-93440000D01*
X178514250Y-93440000D01*
X178673000Y-93281250D01*
X178673000Y-90932000D01*
X178927000Y-90932000D01*
X178927000Y-93281250D01*
X179085750Y-93440000D01*
X183514250Y-93440000D01*
X183673000Y-93281250D01*
X183673000Y-90932000D01*
X178927000Y-90932000D01*
X178673000Y-90932000D01*
X174323750Y-90932000D01*
X174165000Y-91090750D01*
X169432552Y-91090750D01*
X169308609Y-90791526D01*
X168708474Y-90191391D01*
X167924360Y-89866600D01*
X167075640Y-89866600D01*
X166291526Y-90191391D01*
X165691391Y-90791526D01*
X165366600Y-91575640D01*
X129633400Y-91575640D01*
X129308609Y-90791526D01*
X128708474Y-90191391D01*
X127924360Y-89866600D01*
X127075640Y-89866600D01*
X126291526Y-90191391D01*
X125691391Y-90791526D01*
X125366600Y-91575640D01*
X123575750Y-91575640D01*
X123575750Y-88608400D01*
X174194116Y-88608400D01*
X174165000Y-88678691D01*
X174165000Y-88678691D01*
G37*
X174165000Y-88678691D02*
X174165000Y-90519250D01*
X174323750Y-90678000D01*
X178673000Y-90678000D01*
X178673000Y-90658000D01*
X178927000Y-90658000D01*
X178927000Y-90678000D01*
X183673000Y-90678000D01*
X183673000Y-90658000D01*
X183927000Y-90658000D01*
X183927000Y-90678000D01*
X183947000Y-90678000D01*
X183947000Y-90932000D01*
X183927000Y-90932000D01*
X183927000Y-93281250D01*
X184085750Y-93440000D01*
X187391601Y-93440000D01*
X187391601Y-95461921D01*
X187267342Y-95378894D01*
X186600000Y-95246151D01*
X176000000Y-95246151D01*
X175332658Y-95378894D01*
X174766913Y-95756913D01*
X174388894Y-96322658D01*
X174362228Y-96456717D01*
X174297228Y-96413285D01*
X174067552Y-96367600D01*
X174067551Y-96367600D01*
X173990000Y-96352174D01*
X173912449Y-96367600D01*
X165812553Y-96367600D01*
X165735000Y-96352174D01*
X165427771Y-96413285D01*
X165384126Y-96442448D01*
X165167316Y-96587316D01*
X165123386Y-96653062D01*
X163173648Y-98602801D01*
X160402349Y-98602801D01*
X160324798Y-98587375D01*
X160247247Y-98602801D01*
X160017571Y-98648486D01*
X160017570Y-98648487D01*
X160017569Y-98648487D01*
X159980657Y-98673151D01*
X159757115Y-98822517D01*
X159722032Y-98875023D01*
X159678038Y-98856800D01*
X159091962Y-98856800D01*
X158550499Y-99081081D01*
X158136081Y-99495499D01*
X157911800Y-100036962D01*
X157911800Y-100623038D01*
X158136081Y-101164501D01*
X158550499Y-101578919D01*
X159091962Y-101803200D01*
X159678038Y-101803200D01*
X160219501Y-101578919D01*
X160633919Y-101164501D01*
X160858200Y-100623038D01*
X160858200Y-100177601D01*
X163422248Y-100177601D01*
X163499799Y-100193027D01*
X163577350Y-100177601D01*
X163577351Y-100177601D01*
X163807027Y-100131916D01*
X164067483Y-99957885D01*
X164111415Y-99892136D01*
X166061152Y-97942400D01*
X166374048Y-97942400D01*
X162538648Y-101777801D01*
X160402349Y-101777801D01*
X160324798Y-101762375D01*
X160247247Y-101777801D01*
X160017571Y-101823486D01*
X160017570Y-101823487D01*
X160017569Y-101823487D01*
X159924903Y-101885405D01*
X159757115Y-101997517D01*
X159722032Y-102050023D01*
X159678038Y-102031800D01*
X159091962Y-102031800D01*
X158550499Y-102256081D01*
X158136081Y-102670499D01*
X157911800Y-103211962D01*
X157911800Y-103352600D01*
X157687542Y-103352600D01*
X157571327Y-103178673D01*
X157130267Y-102883965D01*
X157060060Y-102870000D01*
X157130267Y-102856035D01*
X157571327Y-102561327D01*
X157866035Y-102120267D01*
X157969522Y-101600000D01*
X157866035Y-101079733D01*
X157571327Y-100638673D01*
X157130267Y-100343965D01*
X156741325Y-100266600D01*
X155678675Y-100266600D01*
X155289733Y-100343965D01*
X154848673Y-100638673D01*
X154770788Y-100755236D01*
X154457400Y-100441849D01*
X154457400Y-97672335D01*
X154574322Y-97555413D01*
X155354192Y-97555413D01*
X155433017Y-97805490D01*
X155984097Y-98004977D01*
X156569569Y-97978389D01*
X156986983Y-97805490D01*
X157065808Y-97555413D01*
X156210000Y-96699605D01*
X155354192Y-97555413D01*
X154574322Y-97555413D01*
X154832786Y-97296949D01*
X154878641Y-97186246D01*
X154924510Y-97296983D01*
X155174587Y-97375808D01*
X156030395Y-96520000D01*
X156389605Y-96520000D01*
X157245413Y-97375808D01*
X157495490Y-97296983D01*
X157694977Y-96745903D01*
X157668389Y-96160431D01*
X157495490Y-95743017D01*
X157245413Y-95664192D01*
X156389605Y-96520000D01*
X156030395Y-96520000D01*
X155174587Y-95664192D01*
X154924510Y-95743017D01*
X154881727Y-95861205D01*
X154832786Y-95743051D01*
X154574322Y-95484587D01*
X155354192Y-95484587D01*
X156210000Y-96340395D01*
X157065808Y-95484587D01*
X156986983Y-95234510D01*
X156435903Y-95035023D01*
X155850431Y-95061611D01*
X155433017Y-95234510D01*
X155354192Y-95484587D01*
X154574322Y-95484587D01*
X154446949Y-95357214D01*
X153942828Y-95148400D01*
X153397172Y-95148400D01*
X152893051Y-95357214D01*
X152517665Y-95732600D01*
X151203849Y-95732600D01*
X151203849Y-95720000D01*
X151162451Y-95511878D01*
X151044559Y-95335441D01*
X150868122Y-95217549D01*
X150660000Y-95176151D01*
X149060000Y-95176151D01*
X148851878Y-95217549D01*
X148675441Y-95335441D01*
X148557549Y-95511878D01*
X148516151Y-95720000D01*
X148516151Y-95736563D01*
X148367745Y-95691861D01*
X147539605Y-96520000D01*
X148367745Y-97348139D01*
X148516151Y-97303437D01*
X148516151Y-97320000D01*
X148557549Y-97528122D01*
X148675441Y-97704559D01*
X148851878Y-97822451D01*
X149060000Y-97863849D01*
X150660000Y-97863849D01*
X150868122Y-97822451D01*
X151044559Y-97704559D01*
X151162451Y-97528122D01*
X151203849Y-97320000D01*
X151203849Y-97307400D01*
X152517665Y-97307400D01*
X152882600Y-97672335D01*
X152882600Y-97782944D01*
X152882601Y-97782949D01*
X152882600Y-100690449D01*
X152867174Y-100768000D01*
X152882600Y-100845551D01*
X152928285Y-101075227D01*
X153102316Y-101335684D01*
X153168065Y-101379616D01*
X153388448Y-101600000D01*
X151898065Y-103090384D01*
X151832316Y-103134316D01*
X151658285Y-103394773D01*
X151622970Y-103572316D01*
X151597174Y-103702000D01*
X151612600Y-103779551D01*
X151612601Y-112402051D01*
X151612600Y-112402056D01*
X151612600Y-112512665D01*
X151247665Y-112877600D01*
X149551152Y-112877600D01*
X146966415Y-110292864D01*
X146922483Y-110227115D01*
X146662027Y-110053084D01*
X146432351Y-110007399D01*
X146432350Y-110007399D01*
X146354799Y-109991973D01*
X146277248Y-110007399D01*
X146253200Y-110007399D01*
X146253200Y-109569039D01*
X146798096Y-109569039D01*
X146815633Y-109651819D01*
X147085500Y-110144896D01*
X147523517Y-110497166D01*
X148063000Y-110655000D01*
X148463000Y-110655000D01*
X148463000Y-109347000D01*
X148717000Y-109347000D01*
X148717000Y-110655000D01*
X149117000Y-110655000D01*
X149656483Y-110497166D01*
X150094500Y-110144896D01*
X150364367Y-109651819D01*
X150381904Y-109569039D01*
X150259915Y-109347000D01*
X148717000Y-109347000D01*
X148463000Y-109347000D01*
X146920085Y-109347000D01*
X146798096Y-109569039D01*
X146253200Y-109569039D01*
X146253200Y-109561962D01*
X146028919Y-109020499D01*
X145614501Y-108606081D01*
X145073038Y-108381800D01*
X144486962Y-108381800D01*
X143945499Y-108606081D01*
X143531081Y-109020499D01*
X143306800Y-109561962D01*
X143306800Y-110148038D01*
X143531081Y-110689501D01*
X143945499Y-111103919D01*
X144486962Y-111328200D01*
X145073038Y-111328200D01*
X145117032Y-111309977D01*
X145152115Y-111362483D01*
X145274047Y-111443955D01*
X145412569Y-111536513D01*
X145412570Y-111536513D01*
X145412571Y-111536514D01*
X145642247Y-111582199D01*
X145719798Y-111597625D01*
X145797349Y-111582199D01*
X146028648Y-111582199D01*
X148613386Y-114166938D01*
X148657316Y-114232684D01*
X148917772Y-114406715D01*
X149147448Y-114452400D01*
X149224999Y-114467826D01*
X149302550Y-114452400D01*
X151247665Y-114452400D01*
X151623051Y-114827786D01*
X151881888Y-114935000D01*
X151623051Y-115042214D01*
X151247665Y-115417600D01*
X148281152Y-115417600D01*
X146233690Y-113370139D01*
X146253200Y-113323038D01*
X146253200Y-112736962D01*
X146028919Y-112195499D01*
X145614501Y-111781081D01*
X145073038Y-111556800D01*
X144486962Y-111556800D01*
X143945499Y-111781081D01*
X143531081Y-112195499D01*
X143306800Y-112736962D01*
X143306800Y-113323038D01*
X143531081Y-113864501D01*
X143945499Y-114278919D01*
X144486962Y-114503200D01*
X145073038Y-114503200D01*
X145120139Y-114483690D01*
X147343386Y-116706938D01*
X147387316Y-116772684D01*
X147647772Y-116946715D01*
X147877448Y-116992400D01*
X147954999Y-117007826D01*
X148032550Y-116992400D01*
X151247665Y-116992400D01*
X151623051Y-117367786D01*
X152127172Y-117576600D01*
X152672828Y-117576600D01*
X153176949Y-117367786D01*
X153469095Y-117075640D01*
X165366600Y-117075640D01*
X165366600Y-117924360D01*
X165691391Y-118708474D01*
X166291526Y-119308609D01*
X167075640Y-119633400D01*
X167924360Y-119633400D01*
X168708474Y-119308609D01*
X169308609Y-118708474D01*
X169633400Y-117924360D01*
X169633400Y-117075640D01*
X169308609Y-116291526D01*
X168708474Y-115691391D01*
X167924360Y-115366600D01*
X167075640Y-115366600D01*
X166291526Y-115691391D01*
X165691391Y-116291526D01*
X165366600Y-117075640D01*
X153469095Y-117075640D01*
X153562786Y-116981949D01*
X153771600Y-116477828D01*
X153771600Y-115932172D01*
X153562786Y-115428051D01*
X153176949Y-115042214D01*
X152918112Y-114935000D01*
X153176949Y-114827786D01*
X153562786Y-114441949D01*
X153771600Y-113937828D01*
X153771600Y-113392172D01*
X153562786Y-112888051D01*
X153187400Y-112512665D01*
X153187400Y-104028151D01*
X154770788Y-102444764D01*
X154848673Y-102561327D01*
X155289733Y-102856035D01*
X155359940Y-102870000D01*
X155289733Y-102883965D01*
X154848673Y-103178673D01*
X154553965Y-103619733D01*
X154450478Y-104140000D01*
X154553965Y-104660267D01*
X154848673Y-105101327D01*
X155289733Y-105396035D01*
X155359940Y-105410000D01*
X155289733Y-105423965D01*
X154848673Y-105718673D01*
X154553965Y-106159733D01*
X154450478Y-106680000D01*
X154553965Y-107200267D01*
X154848673Y-107641327D01*
X155289733Y-107936035D01*
X155359940Y-107950000D01*
X155289733Y-107963965D01*
X154848673Y-108258673D01*
X154553965Y-108699733D01*
X154450478Y-109220000D01*
X154553965Y-109740267D01*
X154848673Y-110181327D01*
X155289733Y-110476035D01*
X155678675Y-110553400D01*
X156741325Y-110553400D01*
X157130267Y-110476035D01*
X157571327Y-110181327D01*
X157687542Y-110007400D01*
X157911800Y-110007400D01*
X157911800Y-110148038D01*
X158136081Y-110689501D01*
X158550499Y-111103919D01*
X159091962Y-111328200D01*
X159678038Y-111328200D01*
X160219501Y-111103919D01*
X160633919Y-110689501D01*
X160653429Y-110642400D01*
X161065449Y-110642400D01*
X163954986Y-113531938D01*
X163998916Y-113597684D01*
X164259372Y-113771715D01*
X164489048Y-113817400D01*
X164566599Y-113832826D01*
X164644150Y-113817400D01*
X171530249Y-113817400D01*
X171881801Y-114168953D01*
X171881800Y-116636649D01*
X171866374Y-116714200D01*
X171881800Y-116791751D01*
X171927485Y-117021427D01*
X172101516Y-117281884D01*
X172167265Y-117325816D01*
X174088386Y-119246938D01*
X174132316Y-119312684D01*
X174256151Y-119395428D01*
X174256151Y-119545000D01*
X174388894Y-120212342D01*
X174521099Y-120410200D01*
X123575750Y-120410200D01*
X123575750Y-117075640D01*
X125366600Y-117075640D01*
X125366600Y-117924360D01*
X125691391Y-118708474D01*
X126291526Y-119308609D01*
X127075640Y-119633400D01*
X127924360Y-119633400D01*
X128708474Y-119308609D01*
X129308609Y-118708474D01*
X129633400Y-117924360D01*
X129633400Y-117075640D01*
X129308609Y-116291526D01*
X128708474Y-115691391D01*
X127924360Y-115366600D01*
X127075640Y-115366600D01*
X126291526Y-115691391D01*
X125691391Y-116291526D01*
X125366600Y-117075640D01*
X123575750Y-117075640D01*
X123575750Y-114138968D01*
X133690637Y-114138968D01*
X133781923Y-114399580D01*
X134369833Y-114616045D01*
X134995828Y-114591049D01*
X135458077Y-114399580D01*
X135549363Y-114138968D01*
X134620000Y-113209605D01*
X133690637Y-114138968D01*
X123575750Y-114138968D01*
X123575750Y-113144528D01*
X123950077Y-113144528D01*
X124140364Y-113489271D01*
X125021591Y-113840956D01*
X125970323Y-113828641D01*
X126789636Y-113489271D01*
X126979923Y-113144528D01*
X125465000Y-111629605D01*
X123950077Y-113144528D01*
X123575750Y-113144528D01*
X123575750Y-112857443D01*
X123770472Y-112964923D01*
X125285395Y-111450000D01*
X125644605Y-111450000D01*
X127159528Y-112964923D01*
X127494855Y-112779833D01*
X133033955Y-112779833D01*
X133058951Y-113405828D01*
X133250420Y-113868077D01*
X133511032Y-113959363D01*
X134440395Y-113030000D01*
X134799605Y-113030000D01*
X135728968Y-113959363D01*
X135989580Y-113868077D01*
X136206045Y-113280167D01*
X136181049Y-112654172D01*
X135989580Y-112191923D01*
X135728968Y-112100637D01*
X134799605Y-113030000D01*
X134440395Y-113030000D01*
X133511032Y-112100637D01*
X133250420Y-112191923D01*
X133033955Y-112779833D01*
X127494855Y-112779833D01*
X127504271Y-112774636D01*
X127844932Y-111921032D01*
X133690637Y-111921032D01*
X134620000Y-112850395D01*
X135549363Y-111921032D01*
X135458077Y-111660420D01*
X134870167Y-111443955D01*
X134244172Y-111468951D01*
X133781923Y-111660420D01*
X133690637Y-111921032D01*
X127844932Y-111921032D01*
X127855956Y-111893409D01*
X127843641Y-110944677D01*
X127504271Y-110125364D01*
X127159528Y-109935077D01*
X125644605Y-111450000D01*
X125285395Y-111450000D01*
X123770472Y-109935077D01*
X123575750Y-110042557D01*
X123575750Y-109755472D01*
X123950077Y-109755472D01*
X125465000Y-111270395D01*
X126979923Y-109755472D01*
X126789636Y-109410729D01*
X125908409Y-109059044D01*
X124959677Y-109071359D01*
X124140364Y-109410729D01*
X123950077Y-109755472D01*
X123575750Y-109755472D01*
X123575750Y-106451279D01*
X126678282Y-106451279D01*
X126704685Y-107041458D01*
X126879741Y-107464080D01*
X127131042Y-107544353D01*
X127995395Y-106680000D01*
X127131042Y-105815647D01*
X126879741Y-105895920D01*
X126678282Y-106451279D01*
X123575750Y-106451279D01*
X123575750Y-103904825D01*
X126791600Y-103904825D01*
X126791600Y-104455175D01*
X127002210Y-104963633D01*
X127391367Y-105352790D01*
X127429712Y-105368673D01*
X127390920Y-105384741D01*
X127310647Y-105636042D01*
X128175000Y-106500395D01*
X128189143Y-106486253D01*
X128368748Y-106665858D01*
X128354605Y-106680000D01*
X128368748Y-106694143D01*
X128189143Y-106873748D01*
X128175000Y-106859605D01*
X127310647Y-107723958D01*
X127390920Y-107975259D01*
X127946279Y-108176718D01*
X128536458Y-108150315D01*
X128959080Y-107975259D01*
X128971780Y-107935499D01*
X129116878Y-108032451D01*
X129325000Y-108073849D01*
X131025000Y-108073849D01*
X131233122Y-108032451D01*
X131409559Y-107914559D01*
X131527451Y-107738122D01*
X131568849Y-107530000D01*
X131568849Y-106386962D01*
X133146800Y-106386962D01*
X133146800Y-106973038D01*
X133371081Y-107514501D01*
X133785499Y-107928919D01*
X134326962Y-108153200D01*
X134913038Y-108153200D01*
X135454501Y-107928919D01*
X135868919Y-107514501D01*
X136093200Y-106973038D01*
X136093200Y-106386962D01*
X135868919Y-105845499D01*
X135454501Y-105431081D01*
X134913038Y-105206800D01*
X134326962Y-105206800D01*
X133785499Y-105431081D01*
X133371081Y-105845499D01*
X133146800Y-106386962D01*
X131568849Y-106386962D01*
X131568849Y-105830000D01*
X131527451Y-105621878D01*
X131409559Y-105445441D01*
X131233122Y-105327549D01*
X131025227Y-105286196D01*
X131344023Y-104967400D01*
X132597449Y-104967400D01*
X132675000Y-104982826D01*
X132752551Y-104967400D01*
X132752552Y-104967400D01*
X132982228Y-104921715D01*
X133242684Y-104747684D01*
X133286616Y-104681935D01*
X133500066Y-104468486D01*
X133785499Y-104753919D01*
X134326962Y-104978200D01*
X134913038Y-104978200D01*
X135454501Y-104753919D01*
X135739934Y-104468486D01*
X136372600Y-105101152D01*
X136372601Y-108893847D01*
X136198849Y-109067600D01*
X135888429Y-109067600D01*
X135868919Y-109020499D01*
X135454501Y-108606081D01*
X134913038Y-108381800D01*
X134326962Y-108381800D01*
X133785499Y-108606081D01*
X133371081Y-109020499D01*
X133146800Y-109561962D01*
X133146800Y-110148038D01*
X133371081Y-110689501D01*
X133785499Y-111103919D01*
X134326962Y-111328200D01*
X134913038Y-111328200D01*
X135454501Y-111103919D01*
X135868919Y-110689501D01*
X135888429Y-110642400D01*
X136447449Y-110642400D01*
X136525000Y-110657826D01*
X136602551Y-110642400D01*
X136602552Y-110642400D01*
X136832228Y-110596715D01*
X137092684Y-110422684D01*
X137136616Y-110356935D01*
X137661937Y-109831614D01*
X137727684Y-109787684D01*
X137901715Y-109527228D01*
X137947400Y-109297552D01*
X137947400Y-109297551D01*
X137962826Y-109220000D01*
X137947400Y-109142449D01*
X137947400Y-104852550D01*
X137962826Y-104774999D01*
X137909085Y-104504826D01*
X137901715Y-104467772D01*
X137727684Y-104207316D01*
X137661938Y-104163386D01*
X136710514Y-103211962D01*
X143306800Y-103211962D01*
X143306800Y-103798038D01*
X143531081Y-104339501D01*
X143945499Y-104753919D01*
X144486962Y-104978200D01*
X145073038Y-104978200D01*
X145614501Y-104753919D01*
X146028919Y-104339501D01*
X146048429Y-104292400D01*
X146860792Y-104292400D01*
X146933965Y-104660267D01*
X147228673Y-105101327D01*
X147669733Y-105396035D01*
X147739940Y-105410000D01*
X147669733Y-105423965D01*
X147228673Y-105718673D01*
X147112458Y-105892600D01*
X146048429Y-105892600D01*
X146028919Y-105845499D01*
X145614501Y-105431081D01*
X145073038Y-105206800D01*
X144486962Y-105206800D01*
X143945499Y-105431081D01*
X143531081Y-105845499D01*
X143306800Y-106386962D01*
X143306800Y-106973038D01*
X143531081Y-107514501D01*
X143945499Y-107928919D01*
X144486962Y-108153200D01*
X145073038Y-108153200D01*
X145614501Y-107928919D01*
X146028919Y-107514501D01*
X146048429Y-107467400D01*
X147112458Y-107467400D01*
X147228673Y-107641327D01*
X147632284Y-107911012D01*
X147523517Y-107942834D01*
X147085500Y-108295104D01*
X146815633Y-108788181D01*
X146798096Y-108870961D01*
X146920085Y-109093000D01*
X148463000Y-109093000D01*
X148463000Y-109073000D01*
X148717000Y-109073000D01*
X148717000Y-109093000D01*
X150259915Y-109093000D01*
X150381904Y-108870961D01*
X150364367Y-108788181D01*
X150094500Y-108295104D01*
X149656483Y-107942834D01*
X149547716Y-107911012D01*
X149951327Y-107641327D01*
X150246035Y-107200267D01*
X150349522Y-106680000D01*
X150246035Y-106159733D01*
X149951327Y-105718673D01*
X149510267Y-105423965D01*
X149440060Y-105410000D01*
X149510267Y-105396035D01*
X149951327Y-105101327D01*
X150246035Y-104660267D01*
X150349522Y-104140000D01*
X150246035Y-103619733D01*
X149951327Y-103178673D01*
X149599889Y-102943849D01*
X149790000Y-102943849D01*
X149998122Y-102902451D01*
X150174559Y-102784559D01*
X150292451Y-102608122D01*
X150333849Y-102400000D01*
X150333849Y-100800000D01*
X150292451Y-100591878D01*
X150174559Y-100415441D01*
X149998122Y-100297549D01*
X149790000Y-100256151D01*
X147390000Y-100256151D01*
X147181878Y-100297549D01*
X147005441Y-100415441D01*
X146887549Y-100591878D01*
X146846151Y-100800000D01*
X146846151Y-102400000D01*
X146887549Y-102608122D01*
X146960700Y-102717600D01*
X146048429Y-102717600D01*
X146028919Y-102670499D01*
X145614501Y-102256081D01*
X145073038Y-102031800D01*
X144486962Y-102031800D01*
X143945499Y-102256081D01*
X143531081Y-102670499D01*
X143306800Y-103211962D01*
X136710514Y-103211962D01*
X136501616Y-103003065D01*
X136457684Y-102937316D01*
X136197228Y-102763285D01*
X135967552Y-102717600D01*
X135967551Y-102717600D01*
X135890000Y-102702174D01*
X135882645Y-102703637D01*
X135868919Y-102670499D01*
X135454501Y-102256081D01*
X134913038Y-102031800D01*
X134326962Y-102031800D01*
X133785499Y-102256081D01*
X133502400Y-102539180D01*
X133502400Y-101295820D01*
X133785499Y-101578919D01*
X134326962Y-101803200D01*
X134913038Y-101803200D01*
X135454501Y-101578919D01*
X135594452Y-101438968D01*
X141310637Y-101438968D01*
X141401923Y-101699580D01*
X141989833Y-101916045D01*
X142615828Y-101891049D01*
X143078077Y-101699580D01*
X143169363Y-101438968D01*
X142240000Y-100509605D01*
X141310637Y-101438968D01*
X135594452Y-101438968D01*
X135868919Y-101164501D01*
X136093200Y-100623038D01*
X136093200Y-100079833D01*
X140653955Y-100079833D01*
X140678951Y-100705828D01*
X140870420Y-101168077D01*
X141131032Y-101259363D01*
X142060395Y-100330000D01*
X142419605Y-100330000D01*
X143348968Y-101259363D01*
X143609580Y-101168077D01*
X143826045Y-100580167D01*
X143801049Y-99954172D01*
X143609580Y-99491923D01*
X143348968Y-99400637D01*
X142419605Y-100330000D01*
X142060395Y-100330000D01*
X141131032Y-99400637D01*
X140870420Y-99491923D01*
X140653955Y-100079833D01*
X136093200Y-100079833D01*
X136093200Y-100036962D01*
X135868919Y-99495499D01*
X135454501Y-99081081D01*
X135403607Y-99060000D01*
X135454501Y-99038919D01*
X135594452Y-98898968D01*
X141310637Y-98898968D01*
X141367043Y-99060000D01*
X141310637Y-99221032D01*
X142240000Y-100150395D01*
X143169363Y-99221032D01*
X143112957Y-99060000D01*
X143169363Y-98898968D01*
X142240000Y-97969605D01*
X141310637Y-98898968D01*
X135594452Y-98898968D01*
X135868919Y-98624501D01*
X136093200Y-98083038D01*
X136093200Y-97539833D01*
X140653955Y-97539833D01*
X140678951Y-98165828D01*
X140870420Y-98628077D01*
X141131032Y-98719363D01*
X142060395Y-97790000D01*
X142419605Y-97790000D01*
X143348968Y-98719363D01*
X143609580Y-98628077D01*
X143826045Y-98040167D01*
X143805584Y-97527745D01*
X146531861Y-97527745D01*
X146605995Y-97773864D01*
X147143223Y-97966965D01*
X147713454Y-97939778D01*
X148114005Y-97773864D01*
X148188139Y-97527745D01*
X147360000Y-96699605D01*
X146531861Y-97527745D01*
X143805584Y-97527745D01*
X143801049Y-97414172D01*
X143609580Y-96951923D01*
X143348968Y-96860637D01*
X142419605Y-97790000D01*
X142060395Y-97790000D01*
X141131032Y-96860637D01*
X140870420Y-96951923D01*
X140653955Y-97539833D01*
X136093200Y-97539833D01*
X136093200Y-97496962D01*
X135868919Y-96955499D01*
X135594452Y-96681032D01*
X141310637Y-96681032D01*
X142240000Y-97610395D01*
X143169363Y-96681032D01*
X143078077Y-96420420D01*
X142759775Y-96303223D01*
X145913035Y-96303223D01*
X145940222Y-96873454D01*
X146106136Y-97274005D01*
X146352255Y-97348139D01*
X147180395Y-96520000D01*
X146352255Y-95691861D01*
X146106136Y-95765995D01*
X145913035Y-96303223D01*
X142759775Y-96303223D01*
X142490167Y-96203955D01*
X141864172Y-96228951D01*
X141401923Y-96420420D01*
X141310637Y-96681032D01*
X135594452Y-96681032D01*
X135454501Y-96541081D01*
X134913038Y-96316800D01*
X134326962Y-96316800D01*
X133785499Y-96541081D01*
X133371081Y-96955499D01*
X133352858Y-96999494D01*
X133290922Y-96987174D01*
X133213371Y-97002600D01*
X132983695Y-97048285D01*
X132723239Y-97222316D01*
X132679310Y-97288061D01*
X132213065Y-97754307D01*
X132147316Y-97798239D01*
X131973285Y-98058696D01*
X131930642Y-98273077D01*
X131912174Y-98365923D01*
X131927600Y-98443474D01*
X131927601Y-102792444D01*
X131912174Y-102870000D01*
X131964466Y-103132885D01*
X131973286Y-103177228D01*
X132117193Y-103392600D01*
X131344023Y-103392600D01*
X130958633Y-103007210D01*
X130450175Y-102796600D01*
X129899825Y-102796600D01*
X129391367Y-103007210D01*
X129175000Y-103223577D01*
X128958633Y-103007210D01*
X128450175Y-102796600D01*
X127899825Y-102796600D01*
X127391367Y-103007210D01*
X127002210Y-103396367D01*
X126791600Y-103904825D01*
X123575750Y-103904825D01*
X123575750Y-101104528D01*
X123950077Y-101104528D01*
X124140364Y-101449271D01*
X125021591Y-101800956D01*
X125970323Y-101788641D01*
X126789636Y-101449271D01*
X126979923Y-101104528D01*
X125465000Y-99589605D01*
X123950077Y-101104528D01*
X123575750Y-101104528D01*
X123575750Y-100817443D01*
X123770472Y-100924923D01*
X125285395Y-99410000D01*
X125644605Y-99410000D01*
X127159528Y-100924923D01*
X127504271Y-100734636D01*
X127855956Y-99853409D01*
X127843641Y-98904677D01*
X127504271Y-98085364D01*
X127159528Y-97895077D01*
X125644605Y-99410000D01*
X125285395Y-99410000D01*
X123770472Y-97895077D01*
X123575750Y-98002557D01*
X123575750Y-97715472D01*
X123950077Y-97715472D01*
X125465000Y-99230395D01*
X126979923Y-97715472D01*
X126789636Y-97370729D01*
X125908409Y-97019044D01*
X124959677Y-97031359D01*
X124140364Y-97370729D01*
X123950077Y-97715472D01*
X123575750Y-97715472D01*
X123575750Y-95512255D01*
X146531861Y-95512255D01*
X147360000Y-96340395D01*
X148188139Y-95512255D01*
X148114005Y-95266136D01*
X147576777Y-95073035D01*
X147006546Y-95100222D01*
X146605995Y-95266136D01*
X146531861Y-95512255D01*
X123575750Y-95512255D01*
X123575750Y-91575640D01*
X125366600Y-91575640D01*
X125366600Y-92424360D01*
X125691391Y-93208474D01*
X126291526Y-93808609D01*
X127075640Y-94133400D01*
X127924360Y-94133400D01*
X128708474Y-93808609D01*
X129308609Y-93208474D01*
X129633400Y-92424360D01*
X129633400Y-91575640D01*
X165366600Y-91575640D01*
X165366600Y-92424360D01*
X165691391Y-93208474D01*
X166291526Y-93808609D01*
X167075640Y-94133400D01*
X167924360Y-94133400D01*
X168708474Y-93808609D01*
X169308609Y-93208474D01*
X169633400Y-92424360D01*
X169633400Y-91575640D01*
X169432552Y-91090750D01*
X174165000Y-91090750D01*
X174165000Y-92931309D01*
X174261673Y-93164698D01*
X174440301Y-93343327D01*
X174673690Y-93440000D01*
X178514250Y-93440000D01*
X178673000Y-93281250D01*
X178673000Y-90932000D01*
X178927000Y-90932000D01*
X178927000Y-93281250D01*
X179085750Y-93440000D01*
X183514250Y-93440000D01*
X183673000Y-93281250D01*
X183673000Y-90932000D01*
X178927000Y-90932000D01*
X178673000Y-90932000D01*
X174323750Y-90932000D01*
X174165000Y-91090750D01*
X169432552Y-91090750D01*
X169308609Y-90791526D01*
X168708474Y-90191391D01*
X167924360Y-89866600D01*
X167075640Y-89866600D01*
X166291526Y-90191391D01*
X165691391Y-90791526D01*
X165366600Y-91575640D01*
X129633400Y-91575640D01*
X129308609Y-90791526D01*
X128708474Y-90191391D01*
X127924360Y-89866600D01*
X127075640Y-89866600D01*
X126291526Y-90191391D01*
X125691391Y-90791526D01*
X125366600Y-91575640D01*
X123575750Y-91575640D01*
X123575750Y-88608400D01*
X174194116Y-88608400D01*
X174165000Y-88678691D01*
G04 #@! TD*
M02*
