M48
;DRILL file {KiCad (5.0.0)} date 09/25/18 23:14:16
;FORMAT={2:4/ absolute / inch / suppress leading zeros}
FMAT,2
INCH,TZ
T1C0.0315
T2C0.0320
T3C0.0354
T4C0.0362
T5C0.0917
T6C0.1200
%
G90
G05
M72
T1
X58500Y-40000
X58500Y-41000
X58500Y-42000
X58500Y-43000
X61500Y-40000
X61500Y-41000
X61500Y-42000
X61500Y-43000
X58016Y-38000
X59000Y-38000
T2
X60000Y-44750
X60000Y-45750
X60500Y-38000
X61500Y-38000
T3
X62750Y-42000
X66750Y-42000
X53000Y-38500
X56000Y-38500
X62750Y-40750
X66750Y-40750
X53000Y-42000
X57000Y-42000
X62750Y-43250
X66750Y-43250
X62750Y-39500
X66750Y-39500
X53000Y-44500
X57000Y-44500
X53000Y-43250
X57000Y-43250
X53000Y-40750
X57000Y-40750
X53000Y-39500
X56000Y-39500
T4
X50463Y-41016
X50463Y-42000
X51250Y-41016
X51250Y-42000
T5
X49396Y-39138
X49396Y-43878
T6
X70394Y-44000
X72362Y-44000
X70394Y-46750
X72362Y-46750
X70394Y-41250
X72362Y-41250
X70394Y-38500
X72362Y-38500
X70394Y-35750
X72362Y-35750
T0
M30
