G04 #@! TF.GenerationSoftware,KiCad,Pcbnew,(5.0.0)*
G04 #@! TF.CreationDate,2018-09-25T23:14:14-03:00*
G04 #@! TF.ProjectId,FranzMakeyDIY,4672616E7A4D616B65794449592E6B69,rev?*
G04 #@! TF.SameCoordinates,Original*
G04 #@! TF.FileFunction,Legend,Top*
G04 #@! TF.FilePolarity,Positive*
%FSLAX46Y46*%
G04 Gerber Fmt 4.6, Leading zero omitted, Abs format (unit mm)*
G04 Created by KiCad (PCBNEW (5.0.0)) date 09/25/18 23:14:14*
%MOMM*%
%LPD*%
G01*
G04 APERTURE LIST*
%ADD10C,0.150000*%
%ADD11C,0.700000*%
%ADD12C,0.152400*%
%ADD13C,0.400000*%
%ADD14C,0.120000*%
%ADD15C,0.203200*%
%ADD16C,0.254000*%
%ADD17C,0.127000*%
G04 APERTURE END LIST*
D10*
G36*
X174726600Y-93167200D02*
X187680600Y-93167200D01*
X187680600Y-95453200D01*
X174726600Y-95453200D01*
X174726600Y-93167200D01*
G37*
X174726600Y-93167200D02*
X187680600Y-93167200D01*
X187680600Y-95453200D01*
X174726600Y-95453200D01*
X174726600Y-93167200D01*
G36*
X174752000Y-100152200D02*
X187706000Y-100152200D01*
X187706000Y-102438200D01*
X174752000Y-102438200D01*
X174752000Y-100152200D01*
G37*
X174752000Y-100152200D02*
X187706000Y-100152200D01*
X187706000Y-102438200D01*
X174752000Y-102438200D01*
X174752000Y-100152200D01*
G36*
X174802800Y-107137200D02*
X187756800Y-107137200D01*
X187756800Y-109423200D01*
X174802800Y-109423200D01*
X174802800Y-107137200D01*
G37*
X174802800Y-107137200D02*
X187756800Y-107137200D01*
X187756800Y-109423200D01*
X174802800Y-109423200D01*
X174802800Y-107137200D01*
G36*
X174879000Y-114122200D02*
X187833000Y-114122200D01*
X187833000Y-116408200D01*
X174879000Y-116408200D01*
X174879000Y-114122200D01*
G37*
X174879000Y-114122200D02*
X187833000Y-114122200D01*
X187833000Y-116408200D01*
X174879000Y-116408200D01*
X174879000Y-114122200D01*
D11*
X133538333Y-91139200D02*
X132371666Y-91139200D01*
X132371666Y-92972533D02*
X132371666Y-89472533D01*
X134038333Y-89472533D01*
X137371666Y-92972533D02*
X136205000Y-91305866D01*
X135371666Y-92972533D02*
X135371666Y-89472533D01*
X136705000Y-89472533D01*
X137038333Y-89639200D01*
X137205000Y-89805866D01*
X137371666Y-90139200D01*
X137371666Y-90639200D01*
X137205000Y-90972533D01*
X137038333Y-91139200D01*
X136705000Y-91305866D01*
X135371666Y-91305866D01*
X138705000Y-91972533D02*
X140371666Y-91972533D01*
X138371666Y-92972533D02*
X139538333Y-89472533D01*
X140705000Y-92972533D01*
X141871666Y-92972533D02*
X141871666Y-89472533D01*
X143871666Y-92972533D01*
X143871666Y-89472533D01*
X145205000Y-89472533D02*
X147538333Y-89472533D01*
X145205000Y-92972533D01*
X147538333Y-92972533D01*
X148871666Y-92972533D02*
X148871666Y-90639200D01*
X148871666Y-90972533D02*
X149038333Y-90805866D01*
X149371666Y-90639200D01*
X149871666Y-90639200D01*
X150205000Y-90805866D01*
X150371666Y-91139200D01*
X150371666Y-92972533D01*
X150371666Y-91139200D02*
X150538333Y-90805866D01*
X150871666Y-90639200D01*
X151371666Y-90639200D01*
X151705000Y-90805866D01*
X151871666Y-91139200D01*
X151871666Y-92972533D01*
X155038333Y-92972533D02*
X155038333Y-91139200D01*
X154871666Y-90805866D01*
X154538333Y-90639200D01*
X153871666Y-90639200D01*
X153538333Y-90805866D01*
X155038333Y-92805866D02*
X154705000Y-92972533D01*
X153871666Y-92972533D01*
X153538333Y-92805866D01*
X153371666Y-92472533D01*
X153371666Y-92139200D01*
X153538333Y-91805866D01*
X153871666Y-91639200D01*
X154705000Y-91639200D01*
X155038333Y-91472533D01*
X156705000Y-92972533D02*
X156705000Y-89472533D01*
X157038333Y-91639200D02*
X158038333Y-92972533D01*
X158038333Y-90639200D02*
X156705000Y-91972533D01*
X160871666Y-92805866D02*
X160538333Y-92972533D01*
X159871666Y-92972533D01*
X159538333Y-92805866D01*
X159371666Y-92472533D01*
X159371666Y-91139200D01*
X159538333Y-90805866D01*
X159871666Y-90639200D01*
X160538333Y-90639200D01*
X160871666Y-90805866D01*
X161038333Y-91139200D01*
X161038333Y-91472533D01*
X159371666Y-91805866D01*
X162205000Y-90639200D02*
X163038333Y-92972533D01*
X163871666Y-90639200D02*
X163038333Y-92972533D01*
X162705000Y-93805866D01*
X162538333Y-93972533D01*
X162205000Y-94139200D01*
D12*
X160890555Y-96139380D02*
X160890555Y-95139380D01*
X160890555Y-95520333D02*
X160985793Y-95472714D01*
X161176269Y-95472714D01*
X161271507Y-95520333D01*
X161319126Y-95567952D01*
X161366745Y-95663190D01*
X161366745Y-95948904D01*
X161319126Y-96044142D01*
X161271507Y-96091761D01*
X161176269Y-96139380D01*
X160985793Y-96139380D01*
X160890555Y-96091761D01*
X161700079Y-95472714D02*
X161938174Y-96139380D01*
X162176269Y-95472714D02*
X161938174Y-96139380D01*
X161842936Y-96377476D01*
X161795317Y-96425095D01*
X161700079Y-96472714D01*
X161223888Y-97267971D02*
X160890555Y-97267971D01*
X160890555Y-97791780D02*
X160890555Y-96791780D01*
X161366745Y-96791780D01*
X162176269Y-97791780D02*
X162176269Y-97267971D01*
X162128650Y-97172733D01*
X162033412Y-97125114D01*
X161842936Y-97125114D01*
X161747698Y-97172733D01*
X162176269Y-97744161D02*
X162081031Y-97791780D01*
X161842936Y-97791780D01*
X161747698Y-97744161D01*
X161700079Y-97648923D01*
X161700079Y-97553685D01*
X161747698Y-97458447D01*
X161842936Y-97410828D01*
X162081031Y-97410828D01*
X162176269Y-97363209D01*
X162033412Y-96744161D02*
X161890555Y-96887019D01*
X162652460Y-97791780D02*
X162652460Y-96791780D01*
X162652460Y-97172733D02*
X162747698Y-97125114D01*
X162938174Y-97125114D01*
X163033412Y-97172733D01*
X163081031Y-97220352D01*
X163128650Y-97315590D01*
X163128650Y-97601304D01*
X163081031Y-97696542D01*
X163033412Y-97744161D01*
X162938174Y-97791780D01*
X162747698Y-97791780D01*
X162652460Y-97744161D01*
X163557221Y-97791780D02*
X163557221Y-97125114D01*
X163557221Y-96791780D02*
X163509602Y-96839400D01*
X163557221Y-96887019D01*
X163604840Y-96839400D01*
X163557221Y-96791780D01*
X163557221Y-96887019D01*
X164176269Y-97791780D02*
X164081031Y-97744161D01*
X164033412Y-97696542D01*
X163985793Y-97601304D01*
X163985793Y-97315590D01*
X164033412Y-97220352D01*
X164081031Y-97172733D01*
X164176269Y-97125114D01*
X164319126Y-97125114D01*
X164414364Y-97172733D01*
X164461983Y-97220352D01*
X164509602Y-97315590D01*
X164509602Y-97601304D01*
X164461983Y-97696542D01*
X164414364Y-97744161D01*
X164319126Y-97791780D01*
X164176269Y-97791780D01*
X165652460Y-97744161D02*
X165795317Y-97791780D01*
X166033412Y-97791780D01*
X166128650Y-97744161D01*
X166176269Y-97696542D01*
X166223888Y-97601304D01*
X166223888Y-97506066D01*
X166176269Y-97410828D01*
X166128650Y-97363209D01*
X166033412Y-97315590D01*
X165842936Y-97267971D01*
X165747698Y-97220352D01*
X165700079Y-97172733D01*
X165652460Y-97077495D01*
X165652460Y-96982257D01*
X165700079Y-96887019D01*
X165747698Y-96839400D01*
X165842936Y-96791780D01*
X166081031Y-96791780D01*
X166223888Y-96839400D01*
X166795317Y-97791780D02*
X166700079Y-97744161D01*
X166652460Y-97696542D01*
X166604840Y-97601304D01*
X166604840Y-97315590D01*
X166652460Y-97220352D01*
X166700079Y-97172733D01*
X166795317Y-97125114D01*
X166938174Y-97125114D01*
X167033412Y-97172733D01*
X167081031Y-97220352D01*
X167128650Y-97315590D01*
X167128650Y-97601304D01*
X167081031Y-97696542D01*
X167033412Y-97744161D01*
X166938174Y-97791780D01*
X166795317Y-97791780D01*
X167985793Y-97125114D02*
X167985793Y-97791780D01*
X167557221Y-97125114D02*
X167557221Y-97648923D01*
X167604840Y-97744161D01*
X167700079Y-97791780D01*
X167842936Y-97791780D01*
X167938174Y-97744161D01*
X167985793Y-97696542D01*
X168366745Y-97125114D02*
X168890555Y-97125114D01*
X168366745Y-97791780D01*
X168890555Y-97791780D01*
X169700079Y-97791780D02*
X169700079Y-97267971D01*
X169652460Y-97172733D01*
X169557221Y-97125114D01*
X169366745Y-97125114D01*
X169271507Y-97172733D01*
X169700079Y-97744161D02*
X169604840Y-97791780D01*
X169366745Y-97791780D01*
X169271507Y-97744161D01*
X169223888Y-97648923D01*
X169223888Y-97553685D01*
X169271507Y-97458447D01*
X169366745Y-97410828D01*
X169604840Y-97410828D01*
X169700079Y-97363209D01*
X136897098Y-94710380D02*
X137230431Y-95710380D01*
X137563764Y-94710380D01*
X138087574Y-94710380D02*
X138182812Y-94710380D01*
X138278050Y-94758000D01*
X138325669Y-94805619D01*
X138373288Y-94900857D01*
X138420907Y-95091333D01*
X138420907Y-95329428D01*
X138373288Y-95519904D01*
X138325669Y-95615142D01*
X138278050Y-95662761D01*
X138182812Y-95710380D01*
X138087574Y-95710380D01*
X137992336Y-95662761D01*
X137944717Y-95615142D01*
X137897098Y-95519904D01*
X137849479Y-95329428D01*
X137849479Y-95091333D01*
X137897098Y-94900857D01*
X137944717Y-94805619D01*
X137992336Y-94758000D01*
X138087574Y-94710380D01*
X139420907Y-95710380D02*
X139087574Y-95234190D01*
X138849479Y-95710380D02*
X138849479Y-94710380D01*
X139230431Y-94710380D01*
X139325669Y-94758000D01*
X139373288Y-94805619D01*
X139420907Y-94900857D01*
X139420907Y-95043714D01*
X139373288Y-95138952D01*
X139325669Y-95186571D01*
X139230431Y-95234190D01*
X138849479Y-95234190D01*
X139706621Y-94710380D02*
X140039955Y-95710380D01*
X140373288Y-94710380D01*
X140897098Y-94710380D02*
X140992336Y-94710380D01*
X141087574Y-94758000D01*
X141135193Y-94805619D01*
X141182812Y-94900857D01*
X141230431Y-95091333D01*
X141230431Y-95329428D01*
X141182812Y-95519904D01*
X141135193Y-95615142D01*
X141087574Y-95662761D01*
X140992336Y-95710380D01*
X140897098Y-95710380D01*
X140801860Y-95662761D01*
X140754240Y-95615142D01*
X140706621Y-95519904D01*
X140659002Y-95329428D01*
X140659002Y-95091333D01*
X140706621Y-94900857D01*
X140754240Y-94805619D01*
X140801860Y-94758000D01*
X140897098Y-94710380D01*
D13*
X130314314Y-118173428D02*
X130695266Y-119506761D01*
X131076219Y-118554380D01*
X131457171Y-119506761D01*
X131838123Y-118173428D01*
X132409552Y-118173428D02*
X132790504Y-119506761D01*
X133171457Y-118554380D01*
X133552409Y-119506761D01*
X133933361Y-118173428D01*
X134504790Y-118173428D02*
X134885742Y-119506761D01*
X135266695Y-118554380D01*
X135647647Y-119506761D01*
X136028600Y-118173428D01*
X136790504Y-119316285D02*
X136885742Y-119411523D01*
X136790504Y-119506761D01*
X136695266Y-119411523D01*
X136790504Y-119316285D01*
X136790504Y-119506761D01*
X137457171Y-118173428D02*
X138219076Y-118173428D01*
X137742885Y-119506761D02*
X137742885Y-117792476D01*
X137838123Y-117602000D01*
X138028600Y-117506761D01*
X138219076Y-117506761D01*
X138885742Y-119506761D02*
X138885742Y-118173428D01*
X138885742Y-118554380D02*
X138980980Y-118363904D01*
X139076219Y-118268666D01*
X139266695Y-118173428D01*
X139457171Y-118173428D01*
X140980980Y-119506761D02*
X140980980Y-118459142D01*
X140885742Y-118268666D01*
X140695266Y-118173428D01*
X140314314Y-118173428D01*
X140123838Y-118268666D01*
X140980980Y-119411523D02*
X140790504Y-119506761D01*
X140314314Y-119506761D01*
X140123838Y-119411523D01*
X140028600Y-119221047D01*
X140028600Y-119030571D01*
X140123838Y-118840095D01*
X140314314Y-118744857D01*
X140790504Y-118744857D01*
X140980980Y-118649619D01*
X141933361Y-118173428D02*
X141933361Y-119506761D01*
X141933361Y-118363904D02*
X142028600Y-118268666D01*
X142219076Y-118173428D01*
X142504790Y-118173428D01*
X142695266Y-118268666D01*
X142790504Y-118459142D01*
X142790504Y-119506761D01*
X143552409Y-118173428D02*
X144600028Y-118173428D01*
X143552409Y-119506761D01*
X144600028Y-119506761D01*
X145361933Y-119506761D02*
X145361933Y-118173428D01*
X145361933Y-117506761D02*
X145266695Y-117602000D01*
X145361933Y-117697238D01*
X145457171Y-117602000D01*
X145361933Y-117506761D01*
X145361933Y-117697238D01*
X146314314Y-118173428D02*
X146314314Y-119506761D01*
X146314314Y-118363904D02*
X146409552Y-118268666D01*
X146600028Y-118173428D01*
X146885742Y-118173428D01*
X147076219Y-118268666D01*
X147171457Y-118459142D01*
X147171457Y-119506761D01*
X148123838Y-119506761D02*
X148123838Y-118173428D01*
X148123838Y-117506761D02*
X148028600Y-117602000D01*
X148123838Y-117697238D01*
X148219076Y-117602000D01*
X148123838Y-117506761D01*
X148123838Y-117697238D01*
X149076219Y-118173428D02*
X149076219Y-119506761D01*
X149076219Y-118363904D02*
X149171457Y-118268666D01*
X149361933Y-118173428D01*
X149647647Y-118173428D01*
X149838123Y-118268666D01*
X149933361Y-118459142D01*
X149933361Y-119506761D01*
X150885742Y-119506761D02*
X150885742Y-117506761D01*
X151742885Y-119506761D02*
X151742885Y-118459142D01*
X151647647Y-118268666D01*
X151457171Y-118173428D01*
X151171457Y-118173428D01*
X150980980Y-118268666D01*
X150885742Y-118363904D01*
X152980980Y-119506761D02*
X152790504Y-119411523D01*
X152695266Y-119316285D01*
X152600028Y-119125809D01*
X152600028Y-118554380D01*
X152695266Y-118363904D01*
X152790504Y-118268666D01*
X152980980Y-118173428D01*
X153266695Y-118173428D01*
X153457171Y-118268666D01*
X153552409Y-118363904D01*
X153647647Y-118554380D01*
X153647647Y-119125809D01*
X153552409Y-119316285D01*
X153457171Y-119411523D01*
X153266695Y-119506761D01*
X152980980Y-119506761D01*
X154504790Y-119316285D02*
X154600028Y-119411523D01*
X154504790Y-119506761D01*
X154409552Y-119411523D01*
X154504790Y-119316285D01*
X154504790Y-119506761D01*
X156314314Y-119411523D02*
X156123838Y-119506761D01*
X155742885Y-119506761D01*
X155552409Y-119411523D01*
X155457171Y-119316285D01*
X155361933Y-119125809D01*
X155361933Y-118554380D01*
X155457171Y-118363904D01*
X155552409Y-118268666D01*
X155742885Y-118173428D01*
X156123838Y-118173428D01*
X156314314Y-118268666D01*
X157457171Y-119506761D02*
X157266695Y-119411523D01*
X157171457Y-119316285D01*
X157076219Y-119125809D01*
X157076219Y-118554380D01*
X157171457Y-118363904D01*
X157266695Y-118268666D01*
X157457171Y-118173428D01*
X157742885Y-118173428D01*
X157933361Y-118268666D01*
X158028600Y-118363904D01*
X158123838Y-118554380D01*
X158123838Y-119125809D01*
X158028600Y-119316285D01*
X157933361Y-119411523D01*
X157742885Y-119506761D01*
X157457171Y-119506761D01*
X158980980Y-119506761D02*
X158980980Y-118173428D01*
X158980980Y-118363904D02*
X159076219Y-118268666D01*
X159266695Y-118173428D01*
X159552409Y-118173428D01*
X159742885Y-118268666D01*
X159838123Y-118459142D01*
X159838123Y-119506761D01*
X159838123Y-118459142D02*
X159933361Y-118268666D01*
X160123838Y-118173428D01*
X160409552Y-118173428D01*
X160600028Y-118268666D01*
X160695266Y-118459142D01*
X160695266Y-119506761D01*
X161647647Y-119316285D02*
X161742885Y-119411523D01*
X161647647Y-119506761D01*
X161552409Y-119411523D01*
X161647647Y-119316285D01*
X161647647Y-119506761D01*
X162600028Y-119506761D02*
X162600028Y-117506761D01*
X162600028Y-118268666D02*
X162790504Y-118173428D01*
X163171457Y-118173428D01*
X163361933Y-118268666D01*
X163457171Y-118363904D01*
X163552409Y-118554380D01*
X163552409Y-119125809D01*
X163457171Y-119316285D01*
X163361933Y-119411523D01*
X163171457Y-119506761D01*
X162790504Y-119506761D01*
X162600028Y-119411523D01*
X164409552Y-119506761D02*
X164409552Y-118173428D01*
X164409552Y-118554380D02*
X164504790Y-118363904D01*
X164600028Y-118268666D01*
X164790504Y-118173428D01*
X164980980Y-118173428D01*
D14*
G04 #@! TO.C,IC1*
X157650000Y-100210000D02*
X147150000Y-100210000D01*
X157650000Y-110610000D02*
X157650000Y-100210000D01*
X147150000Y-110610000D02*
X157650000Y-110610000D01*
X147150000Y-100210000D02*
X147150000Y-110610000D01*
X154650000Y-100270000D02*
X153400000Y-100270000D01*
X154650000Y-110550000D02*
X154650000Y-100270000D01*
X150150000Y-110550000D02*
X154650000Y-110550000D01*
X150150000Y-100270000D02*
X150150000Y-110550000D01*
X151400000Y-100270000D02*
X150150000Y-100270000D01*
X153400000Y-100270000D02*
G75*
G02X151400000Y-100270000I-1000000J0D01*
G01*
D15*
G04 #@! TO.C,D2*
X136525000Y-100965000D02*
X136525000Y-99695000D01*
X140970000Y-100330000D02*
X141224000Y-100330000D01*
X135890000Y-100330000D02*
X135636000Y-100330000D01*
X140970000Y-100330000D02*
X140970000Y-101092000D01*
X140970000Y-99568000D02*
X140970000Y-100330000D01*
X135890000Y-99568000D02*
X140970000Y-99568000D01*
X135890000Y-100330000D02*
X135890000Y-99568000D01*
X135890000Y-101092000D02*
X135890000Y-100330000D01*
X140970000Y-101092000D02*
X135890000Y-101092000D01*
G04 #@! TO.C,D1*
X136525000Y-98425000D02*
X136525000Y-97155000D01*
X140970000Y-97790000D02*
X141224000Y-97790000D01*
X135890000Y-97790000D02*
X135636000Y-97790000D01*
X140970000Y-97790000D02*
X140970000Y-98552000D01*
X140970000Y-97028000D02*
X140970000Y-97790000D01*
X135890000Y-97028000D02*
X140970000Y-97028000D01*
X135890000Y-97790000D02*
X135890000Y-97028000D01*
X135890000Y-98552000D02*
X135890000Y-97790000D01*
X140970000Y-98552000D02*
X135890000Y-98552000D01*
D12*
G04 #@! TO.C,C1*
X154686000Y-96520000D02*
X154559000Y-96520000D01*
D16*
X154686000Y-96520000D02*
X154686000Y-97282000D01*
X154686000Y-95758000D02*
X154686000Y-96520000D01*
X155194000Y-96520000D02*
X155194000Y-97282000D01*
X155194000Y-96520000D02*
X155194000Y-95758000D01*
D12*
X155321000Y-96520000D02*
X155194000Y-96520000D01*
X152781000Y-97790000D02*
G75*
G02X152527000Y-97536000I0J254000D01*
G01*
X157353000Y-97536000D02*
G75*
G02X157099000Y-97790000I-254000J0D01*
G01*
X152781000Y-95250000D02*
G75*
G03X152527000Y-95504000I0J-254000D01*
G01*
X157353000Y-95504000D02*
G75*
G03X157099000Y-95250000I-254000J0D01*
G01*
X152527000Y-95504000D02*
X152527000Y-97536000D01*
X157353000Y-95504000D02*
X157353000Y-97536000D01*
X157099000Y-97790000D02*
X152781000Y-97790000D01*
X152781000Y-95250000D02*
X157099000Y-95250000D01*
D15*
G04 #@! TO.C,R1*
X142850000Y-104705000D02*
X136550000Y-104705000D01*
X142850000Y-102305000D02*
X142850000Y-104705000D01*
X136550000Y-102305000D02*
X142850000Y-102305000D01*
X136550000Y-104705000D02*
X136550000Y-102305000D01*
G04 #@! TO.C,R2*
X142850000Y-107880000D02*
X136550000Y-107880000D01*
X142850000Y-105480000D02*
X142850000Y-107880000D01*
X136550000Y-105480000D02*
X142850000Y-105480000D01*
X136550000Y-107880000D02*
X136550000Y-105480000D01*
G04 #@! TO.C,R3*
X136550000Y-108655000D02*
X142850000Y-108655000D01*
X136550000Y-111055000D02*
X136550000Y-108655000D01*
X142850000Y-111055000D02*
X136550000Y-111055000D01*
X142850000Y-108655000D02*
X142850000Y-111055000D01*
G04 #@! TO.C,R5*
X161315000Y-108655000D02*
X167615000Y-108655000D01*
X161315000Y-111055000D02*
X161315000Y-108655000D01*
X167615000Y-111055000D02*
X161315000Y-111055000D01*
X167615000Y-108655000D02*
X167615000Y-111055000D01*
G04 #@! TO.C,R4*
X142850000Y-114230000D02*
X136550000Y-114230000D01*
X142850000Y-111830000D02*
X142850000Y-114230000D01*
X136550000Y-111830000D02*
X142850000Y-111830000D01*
X136550000Y-114230000D02*
X136550000Y-111830000D01*
D12*
G04 #@! TO.C,ON*
X153285801Y-116175100D02*
G75*
G03X153924000Y-114935000I-885801J1240134D01*
G01*
X153924000Y-114935000D02*
G75*
G03X153314400Y-113715800I-1524000J0D01*
G01*
X151464400Y-116138000D02*
G75*
G02X150876000Y-114935000I935600J1203008D01*
G01*
X150876000Y-114935000D02*
G75*
G02X151464400Y-113732000I1524000J-8D01*
G01*
D16*
X153700900Y-116496000D02*
G75*
G03X154432000Y-114935000I-1300900J1560988D01*
G01*
X154432000Y-114935000D02*
G75*
G03X153356200Y-113142100I-2032000J-60D01*
G01*
X151087400Y-116486200D02*
G75*
G02X150368000Y-114935000I1312600J1551163D01*
G01*
X150368000Y-114935000D02*
G75*
G02X151391800Y-113170700I2032000J56D01*
G01*
D17*
X154127200Y-112344200D02*
X154127200Y-113080800D01*
X153720800Y-112699800D02*
X154508200Y-112699800D01*
D15*
G04 #@! TO.C,R6*
X167615000Y-105480000D02*
X167615000Y-107880000D01*
X167615000Y-107880000D02*
X161315000Y-107880000D01*
X161315000Y-107880000D02*
X161315000Y-105480000D01*
X161315000Y-105480000D02*
X167615000Y-105480000D01*
G04 #@! TO.C,R7*
X161315000Y-102305000D02*
X167615000Y-102305000D01*
X161315000Y-104705000D02*
X161315000Y-102305000D01*
X167615000Y-104705000D02*
X161315000Y-104705000D01*
X167615000Y-102305000D02*
X167615000Y-104705000D01*
G04 #@! TO.C,R8*
X167615000Y-99130000D02*
X167615000Y-101530000D01*
X167615000Y-101530000D02*
X161315000Y-101530000D01*
X161315000Y-101530000D02*
X161315000Y-99130000D01*
X161315000Y-99130000D02*
X167615000Y-99130000D01*
D14*
G04 #@! TO.C,J6*
X127515000Y-111590000D02*
X131775000Y-111590000D01*
X131775000Y-111590000D02*
X131775000Y-99270000D01*
X131775000Y-99270000D02*
X127515000Y-99270000D01*
X123415000Y-111590000D02*
X115055000Y-111590000D01*
X115055000Y-111590000D02*
X115055000Y-99270000D01*
X115055000Y-99270000D02*
X123415000Y-99270000D01*
X131995000Y-106680000D02*
X132495000Y-107180000D01*
X132495000Y-107180000D02*
X132495000Y-106180000D01*
X132495000Y-106180000D02*
X131995000Y-106680000D01*
G04 #@! TO.C,C2*
X151460000Y-97170000D02*
X151460000Y-95870000D01*
X152060000Y-96520000D02*
X150860000Y-96520000D01*
X146049000Y-96874000D02*
X146049000Y-96166000D01*
X146089000Y-97079000D02*
X146089000Y-95961000D01*
X146129000Y-97227000D02*
X146129000Y-95813000D01*
X146169000Y-97349000D02*
X146169000Y-95691000D01*
X146209000Y-97454000D02*
X146209000Y-95586000D01*
X146249000Y-97548000D02*
X146249000Y-95492000D01*
X146289000Y-97632000D02*
X146289000Y-95408000D01*
X146329000Y-97709000D02*
X146329000Y-95331000D01*
X146369000Y-97781000D02*
X146369000Y-95259000D01*
X146409000Y-95540000D02*
X146409000Y-95193000D01*
X146409000Y-97847000D02*
X146409000Y-97500000D01*
X146449000Y-95540000D02*
X146449000Y-95130000D01*
X146449000Y-97910000D02*
X146449000Y-97500000D01*
X146489000Y-95540000D02*
X146489000Y-95072000D01*
X146489000Y-97968000D02*
X146489000Y-97500000D01*
X146529000Y-95540000D02*
X146529000Y-95016000D01*
X146529000Y-98024000D02*
X146529000Y-97500000D01*
X146569000Y-95540000D02*
X146569000Y-94964000D01*
X146569000Y-98076000D02*
X146569000Y-97500000D01*
X146609000Y-95540000D02*
X146609000Y-94914000D01*
X146609000Y-98126000D02*
X146609000Y-97500000D01*
X146649000Y-95540000D02*
X146649000Y-94866000D01*
X146649000Y-98174000D02*
X146649000Y-97500000D01*
X146689000Y-95540000D02*
X146689000Y-94821000D01*
X146689000Y-98219000D02*
X146689000Y-97500000D01*
X146729000Y-95540000D02*
X146729000Y-94778000D01*
X146729000Y-98262000D02*
X146729000Y-97500000D01*
X146769000Y-95540000D02*
X146769000Y-94737000D01*
X146769000Y-98303000D02*
X146769000Y-97500000D01*
X146809000Y-95540000D02*
X146809000Y-94697000D01*
X146809000Y-98343000D02*
X146809000Y-97500000D01*
X146849000Y-95540000D02*
X146849000Y-94659000D01*
X146849000Y-98381000D02*
X146849000Y-97500000D01*
X146889000Y-95540000D02*
X146889000Y-94623000D01*
X146889000Y-98417000D02*
X146889000Y-97500000D01*
X146929000Y-95540000D02*
X146929000Y-94588000D01*
X146929000Y-98452000D02*
X146929000Y-97500000D01*
X146969000Y-95540000D02*
X146969000Y-94555000D01*
X146969000Y-98485000D02*
X146969000Y-97500000D01*
X147009000Y-95540000D02*
X147009000Y-94523000D01*
X147009000Y-98517000D02*
X147009000Y-97500000D01*
X147049000Y-95540000D02*
X147049000Y-94492000D01*
X147049000Y-98548000D02*
X147049000Y-97500000D01*
X147089000Y-95540000D02*
X147089000Y-94462000D01*
X147089000Y-98578000D02*
X147089000Y-97500000D01*
X147129000Y-95540000D02*
X147129000Y-94434000D01*
X147129000Y-98606000D02*
X147129000Y-97500000D01*
X147169000Y-95540000D02*
X147169000Y-94407000D01*
X147169000Y-98633000D02*
X147169000Y-97500000D01*
X147209000Y-95540000D02*
X147209000Y-94380000D01*
X147209000Y-98660000D02*
X147209000Y-97500000D01*
X147249000Y-95540000D02*
X147249000Y-94355000D01*
X147249000Y-98685000D02*
X147249000Y-97500000D01*
X147289000Y-95540000D02*
X147289000Y-94331000D01*
X147289000Y-98709000D02*
X147289000Y-97500000D01*
X147329000Y-95540000D02*
X147329000Y-94308000D01*
X147329000Y-98732000D02*
X147329000Y-97500000D01*
X147369000Y-95540000D02*
X147369000Y-94286000D01*
X147369000Y-98754000D02*
X147369000Y-97500000D01*
X147409000Y-95540000D02*
X147409000Y-94264000D01*
X147409000Y-98776000D02*
X147409000Y-97500000D01*
X147449000Y-95540000D02*
X147449000Y-94244000D01*
X147449000Y-98796000D02*
X147449000Y-97500000D01*
X147489000Y-95540000D02*
X147489000Y-94224000D01*
X147489000Y-98816000D02*
X147489000Y-97500000D01*
X147529000Y-95540000D02*
X147529000Y-94205000D01*
X147529000Y-98835000D02*
X147529000Y-97500000D01*
X147569000Y-95540000D02*
X147569000Y-94187000D01*
X147569000Y-98853000D02*
X147569000Y-97500000D01*
X147609000Y-95540000D02*
X147609000Y-94170000D01*
X147609000Y-98870000D02*
X147609000Y-97500000D01*
X147649000Y-95540000D02*
X147649000Y-94154000D01*
X147649000Y-98886000D02*
X147649000Y-97500000D01*
X147689000Y-95540000D02*
X147689000Y-94138000D01*
X147689000Y-98902000D02*
X147689000Y-97500000D01*
X147729000Y-95540000D02*
X147729000Y-94124000D01*
X147729000Y-98916000D02*
X147729000Y-97500000D01*
X147769000Y-95540000D02*
X147769000Y-94110000D01*
X147769000Y-98930000D02*
X147769000Y-97500000D01*
X147809000Y-95540000D02*
X147809000Y-94096000D01*
X147809000Y-98944000D02*
X147809000Y-97500000D01*
X147849000Y-95540000D02*
X147849000Y-94084000D01*
X147849000Y-98956000D02*
X147849000Y-97500000D01*
X147889000Y-95540000D02*
X147889000Y-94072000D01*
X147889000Y-98968000D02*
X147889000Y-97500000D01*
X147930000Y-95540000D02*
X147930000Y-94060000D01*
X147930000Y-98980000D02*
X147930000Y-97500000D01*
X147970000Y-95540000D02*
X147970000Y-94050000D01*
X147970000Y-98990000D02*
X147970000Y-97500000D01*
X148010000Y-95540000D02*
X148010000Y-94040000D01*
X148010000Y-99000000D02*
X148010000Y-97500000D01*
X148050000Y-95540000D02*
X148050000Y-94031000D01*
X148050000Y-99009000D02*
X148050000Y-97500000D01*
X148090000Y-95540000D02*
X148090000Y-94022000D01*
X148090000Y-99018000D02*
X148090000Y-97500000D01*
X148130000Y-95540000D02*
X148130000Y-94014000D01*
X148130000Y-99026000D02*
X148130000Y-97500000D01*
X148170000Y-95540000D02*
X148170000Y-94007000D01*
X148170000Y-99033000D02*
X148170000Y-97500000D01*
X148210000Y-95540000D02*
X148210000Y-94001000D01*
X148210000Y-99039000D02*
X148210000Y-97500000D01*
X148250000Y-95540000D02*
X148250000Y-93995000D01*
X148250000Y-99045000D02*
X148250000Y-97500000D01*
X148290000Y-95540000D02*
X148290000Y-93989000D01*
X148290000Y-99051000D02*
X148290000Y-97500000D01*
X148330000Y-95540000D02*
X148330000Y-93985000D01*
X148330000Y-99055000D02*
X148330000Y-97500000D01*
X148370000Y-99059000D02*
X148370000Y-93981000D01*
X148410000Y-99063000D02*
X148410000Y-93977000D01*
X148450000Y-99066000D02*
X148450000Y-93974000D01*
X148490000Y-99068000D02*
X148490000Y-93972000D01*
X148530000Y-99069000D02*
X148530000Y-93971000D01*
X148570000Y-99070000D02*
X148570000Y-93970000D01*
X148610000Y-99070000D02*
X148610000Y-93970000D01*
X146304278Y-95340277D02*
G75*
G03X146304420Y-97700000I2305722J-1179723D01*
G01*
X146304278Y-95340277D02*
G75*
G02X150915580Y-95340000I2305722J-1179723D01*
G01*
X146304278Y-97699723D02*
G75*
G03X150915580Y-97700000I2305722J1179723D01*
G01*
G04 #@! TO.C,IC1*
D10*
X151474609Y-105506780D02*
X151474609Y-104506780D01*
X152522228Y-105411542D02*
X152474609Y-105459161D01*
X152331752Y-105506780D01*
X152236514Y-105506780D01*
X152093657Y-105459161D01*
X151998419Y-105363923D01*
X151950800Y-105268685D01*
X151903180Y-105078209D01*
X151903180Y-104935352D01*
X151950800Y-104744876D01*
X151998419Y-104649638D01*
X152093657Y-104554400D01*
X152236514Y-104506780D01*
X152331752Y-104506780D01*
X152474609Y-104554400D01*
X152522228Y-104602019D01*
X153474609Y-105506780D02*
X152903180Y-105506780D01*
X153188895Y-105506780D02*
X153188895Y-104506780D01*
X153093657Y-104649638D01*
X152998419Y-104744876D01*
X152903180Y-104792495D01*
G04 #@! TO.C,D2*
D12*
X137759654Y-100840680D02*
X137759654Y-99840680D01*
X137997749Y-99840680D01*
X138140606Y-99888300D01*
X138235844Y-99983538D01*
X138283463Y-100078776D01*
X138331082Y-100269252D01*
X138331082Y-100412109D01*
X138283463Y-100602585D01*
X138235844Y-100697823D01*
X138140606Y-100793061D01*
X137997749Y-100840680D01*
X137759654Y-100840680D01*
X138712035Y-99935919D02*
X138759654Y-99888300D01*
X138854892Y-99840680D01*
X139092987Y-99840680D01*
X139188225Y-99888300D01*
X139235844Y-99935919D01*
X139283463Y-100031157D01*
X139283463Y-100126395D01*
X139235844Y-100269252D01*
X138664416Y-100840680D01*
X139283463Y-100840680D01*
G04 #@! TO.C,D1*
X137785054Y-98259780D02*
X137785054Y-97259780D01*
X138023149Y-97259780D01*
X138166006Y-97307400D01*
X138261244Y-97402638D01*
X138308863Y-97497876D01*
X138356482Y-97688352D01*
X138356482Y-97831209D01*
X138308863Y-98021685D01*
X138261244Y-98116923D01*
X138166006Y-98212161D01*
X138023149Y-98259780D01*
X137785054Y-98259780D01*
X139308863Y-98259780D02*
X138737435Y-98259780D01*
X139023149Y-98259780D02*
X139023149Y-97259780D01*
X138927911Y-97402638D01*
X138832673Y-97497876D01*
X138737435Y-97545495D01*
G04 #@! TO.C,C1*
X158270082Y-97123142D02*
X158222463Y-97170761D01*
X158079606Y-97218380D01*
X157984368Y-97218380D01*
X157841511Y-97170761D01*
X157746273Y-97075523D01*
X157698654Y-96980285D01*
X157651035Y-96789809D01*
X157651035Y-96646952D01*
X157698654Y-96456476D01*
X157746273Y-96361238D01*
X157841511Y-96266000D01*
X157984368Y-96218380D01*
X158079606Y-96218380D01*
X158222463Y-96266000D01*
X158270082Y-96313619D01*
X159222463Y-97218380D02*
X158651035Y-97218380D01*
X158936749Y-97218380D02*
X158936749Y-96218380D01*
X158841511Y-96361238D01*
X158746273Y-96456476D01*
X158651035Y-96504095D01*
G04 #@! TO.C,R1*
X139636138Y-103913757D02*
X139236138Y-103342328D01*
X138950424Y-103913757D02*
X138950424Y-102713757D01*
X139407567Y-102713757D01*
X139521852Y-102770900D01*
X139578995Y-102828042D01*
X139636138Y-102942328D01*
X139636138Y-103113757D01*
X139578995Y-103228042D01*
X139521852Y-103285185D01*
X139407567Y-103342328D01*
X138950424Y-103342328D01*
X140778995Y-103913757D02*
X140093281Y-103913757D01*
X140436138Y-103913757D02*
X140436138Y-102713757D01*
X140321852Y-102885185D01*
X140207567Y-102999471D01*
X140093281Y-103056614D01*
G04 #@! TO.C,R2*
X139573638Y-107171757D02*
X139173638Y-106600328D01*
X138887924Y-107171757D02*
X138887924Y-105971757D01*
X139345067Y-105971757D01*
X139459352Y-106028900D01*
X139516495Y-106086042D01*
X139573638Y-106200328D01*
X139573638Y-106371757D01*
X139516495Y-106486042D01*
X139459352Y-106543185D01*
X139345067Y-106600328D01*
X138887924Y-106600328D01*
X140030781Y-106086042D02*
X140087924Y-106028900D01*
X140202210Y-105971757D01*
X140487924Y-105971757D01*
X140602210Y-106028900D01*
X140659352Y-106086042D01*
X140716495Y-106200328D01*
X140716495Y-106314614D01*
X140659352Y-106486042D01*
X139973638Y-107171757D01*
X140716495Y-107171757D01*
G04 #@! TO.C,R3*
X139573638Y-110559857D02*
X139173638Y-109988428D01*
X138887924Y-110559857D02*
X138887924Y-109359857D01*
X139345067Y-109359857D01*
X139459352Y-109417000D01*
X139516495Y-109474142D01*
X139573638Y-109588428D01*
X139573638Y-109759857D01*
X139516495Y-109874142D01*
X139459352Y-109931285D01*
X139345067Y-109988428D01*
X138887924Y-109988428D01*
X139973638Y-109359857D02*
X140716495Y-109359857D01*
X140316495Y-109817000D01*
X140487924Y-109817000D01*
X140602210Y-109874142D01*
X140659352Y-109931285D01*
X140716495Y-110045571D01*
X140716495Y-110331285D01*
X140659352Y-110445571D01*
X140602210Y-110502714D01*
X140487924Y-110559857D01*
X140145067Y-110559857D01*
X140030781Y-110502714D01*
X139973638Y-110445571D01*
G04 #@! TO.C,R5*
X164279511Y-110578007D02*
X163879511Y-110006578D01*
X163593797Y-110578007D02*
X163593797Y-109378007D01*
X164050940Y-109378007D01*
X164165225Y-109435150D01*
X164222368Y-109492292D01*
X164279511Y-109606578D01*
X164279511Y-109778007D01*
X164222368Y-109892292D01*
X164165225Y-109949435D01*
X164050940Y-110006578D01*
X163593797Y-110006578D01*
X165365225Y-109378007D02*
X164793797Y-109378007D01*
X164736654Y-109949435D01*
X164793797Y-109892292D01*
X164908082Y-109835150D01*
X165193797Y-109835150D01*
X165308082Y-109892292D01*
X165365225Y-109949435D01*
X165422368Y-110063721D01*
X165422368Y-110349435D01*
X165365225Y-110463721D01*
X165308082Y-110520864D01*
X165193797Y-110578007D01*
X164908082Y-110578007D01*
X164793797Y-110520864D01*
X164736654Y-110463721D01*
G04 #@! TO.C,R4*
X139423311Y-113588657D02*
X139023311Y-113017228D01*
X138737597Y-113588657D02*
X138737597Y-112388657D01*
X139194740Y-112388657D01*
X139309025Y-112445800D01*
X139366168Y-112502942D01*
X139423311Y-112617228D01*
X139423311Y-112788657D01*
X139366168Y-112902942D01*
X139309025Y-112960085D01*
X139194740Y-113017228D01*
X138737597Y-113017228D01*
X140451882Y-112788657D02*
X140451882Y-113588657D01*
X140166168Y-112331514D02*
X139880454Y-113188657D01*
X140623311Y-113188657D01*
G04 #@! TO.C,ON*
X147900940Y-114192857D02*
X148129511Y-114192857D01*
X148243797Y-114250000D01*
X148358082Y-114364285D01*
X148415225Y-114592857D01*
X148415225Y-114992857D01*
X148358082Y-115221428D01*
X148243797Y-115335714D01*
X148129511Y-115392857D01*
X147900940Y-115392857D01*
X147786654Y-115335714D01*
X147672368Y-115221428D01*
X147615225Y-114992857D01*
X147615225Y-114592857D01*
X147672368Y-114364285D01*
X147786654Y-114250000D01*
X147900940Y-114192857D01*
X148929511Y-115392857D02*
X148929511Y-114192857D01*
X149615225Y-115392857D01*
X149615225Y-114192857D01*
G04 #@! TO.C,R6*
X164279511Y-107392857D02*
X163879511Y-106821428D01*
X163593797Y-107392857D02*
X163593797Y-106192857D01*
X164050940Y-106192857D01*
X164165225Y-106250000D01*
X164222368Y-106307142D01*
X164279511Y-106421428D01*
X164279511Y-106592857D01*
X164222368Y-106707142D01*
X164165225Y-106764285D01*
X164050940Y-106821428D01*
X163593797Y-106821428D01*
X165308082Y-106192857D02*
X165079511Y-106192857D01*
X164965225Y-106250000D01*
X164908082Y-106307142D01*
X164793797Y-106478571D01*
X164736654Y-106707142D01*
X164736654Y-107164285D01*
X164793797Y-107278571D01*
X164850940Y-107335714D01*
X164965225Y-107392857D01*
X165193797Y-107392857D01*
X165308082Y-107335714D01*
X165365225Y-107278571D01*
X165422368Y-107164285D01*
X165422368Y-106878571D01*
X165365225Y-106764285D01*
X165308082Y-106707142D01*
X165193797Y-106650000D01*
X164965225Y-106650000D01*
X164850940Y-106707142D01*
X164793797Y-106764285D01*
X164736654Y-106878571D01*
G04 #@! TO.C,R7*
X164279511Y-104142857D02*
X163879511Y-103571428D01*
X163593797Y-104142857D02*
X163593797Y-102942857D01*
X164050940Y-102942857D01*
X164165225Y-103000000D01*
X164222368Y-103057142D01*
X164279511Y-103171428D01*
X164279511Y-103342857D01*
X164222368Y-103457142D01*
X164165225Y-103514285D01*
X164050940Y-103571428D01*
X163593797Y-103571428D01*
X164679511Y-102942857D02*
X165479511Y-102942857D01*
X164965225Y-104142857D01*
G04 #@! TO.C,R8*
X164279511Y-100892857D02*
X163879511Y-100321428D01*
X163593797Y-100892857D02*
X163593797Y-99692857D01*
X164050940Y-99692857D01*
X164165225Y-99750000D01*
X164222368Y-99807142D01*
X164279511Y-99921428D01*
X164279511Y-100092857D01*
X164222368Y-100207142D01*
X164165225Y-100264285D01*
X164050940Y-100321428D01*
X163593797Y-100321428D01*
X164965225Y-100207142D02*
X164850940Y-100150000D01*
X164793797Y-100092857D01*
X164736654Y-99978571D01*
X164736654Y-99921428D01*
X164793797Y-99807142D01*
X164850940Y-99750000D01*
X164965225Y-99692857D01*
X165193797Y-99692857D01*
X165308082Y-99750000D01*
X165365225Y-99807142D01*
X165422368Y-99921428D01*
X165422368Y-99978571D01*
X165365225Y-100092857D01*
X165308082Y-100150000D01*
X165193797Y-100207142D01*
X164965225Y-100207142D01*
X164850940Y-100264285D01*
X164793797Y-100321428D01*
X164736654Y-100435714D01*
X164736654Y-100664285D01*
X164793797Y-100778571D01*
X164850940Y-100835714D01*
X164965225Y-100892857D01*
X165193797Y-100892857D01*
X165308082Y-100835714D01*
X165365225Y-100778571D01*
X165422368Y-100664285D01*
X165422368Y-100435714D01*
X165365225Y-100321428D01*
X165308082Y-100264285D01*
X165193797Y-100207142D01*
G04 #@! TO.C,J6*
D10*
X124533066Y-104938580D02*
X124533066Y-105652866D01*
X124485447Y-105795723D01*
X124390209Y-105890961D01*
X124247352Y-105938580D01*
X124152114Y-105938580D01*
X125437828Y-104938580D02*
X125247352Y-104938580D01*
X125152114Y-104986200D01*
X125104495Y-105033819D01*
X125009257Y-105176676D01*
X124961638Y-105367152D01*
X124961638Y-105748104D01*
X125009257Y-105843342D01*
X125056876Y-105890961D01*
X125152114Y-105938580D01*
X125342590Y-105938580D01*
X125437828Y-105890961D01*
X125485447Y-105843342D01*
X125533066Y-105748104D01*
X125533066Y-105510009D01*
X125485447Y-105414771D01*
X125437828Y-105367152D01*
X125342590Y-105319533D01*
X125152114Y-105319533D01*
X125056876Y-105367152D01*
X125009257Y-105414771D01*
X124961638Y-105510009D01*
G04 #@! TO.C,C2*
X144867333Y-96877142D02*
X144819714Y-96924761D01*
X144676857Y-96972380D01*
X144581619Y-96972380D01*
X144438761Y-96924761D01*
X144343523Y-96829523D01*
X144295904Y-96734285D01*
X144248285Y-96543809D01*
X144248285Y-96400952D01*
X144295904Y-96210476D01*
X144343523Y-96115238D01*
X144438761Y-96020000D01*
X144581619Y-95972380D01*
X144676857Y-95972380D01*
X144819714Y-96020000D01*
X144867333Y-96067619D01*
X145248285Y-96067619D02*
X145295904Y-96020000D01*
X145391142Y-95972380D01*
X145629238Y-95972380D01*
X145724476Y-96020000D01*
X145772095Y-96067619D01*
X145819714Y-96162857D01*
X145819714Y-96258095D01*
X145772095Y-96400952D01*
X145200666Y-96972380D01*
X145819714Y-96972380D01*
G04 #@! TO.C,0*
D13*
X171904761Y-118840238D02*
X171904761Y-118649761D01*
X172000000Y-118459285D01*
X172095238Y-118364047D01*
X172285714Y-118268809D01*
X172666666Y-118173571D01*
X173142857Y-118173571D01*
X173523809Y-118268809D01*
X173714285Y-118364047D01*
X173809523Y-118459285D01*
X173904761Y-118649761D01*
X173904761Y-118840238D01*
X173809523Y-119030714D01*
X173714285Y-119125952D01*
X173523809Y-119221190D01*
X173142857Y-119316428D01*
X172666666Y-119316428D01*
X172285714Y-119221190D01*
X172095238Y-119125952D01*
X172000000Y-119030714D01*
X171904761Y-118840238D01*
G04 #@! TO.C,1*
X173904761Y-111178571D02*
X173904761Y-112321428D01*
X173904761Y-111750000D02*
X171904761Y-111750000D01*
X172190476Y-111940476D01*
X172380952Y-112130952D01*
X172476190Y-112321428D01*
G04 #@! TO.C,2*
X172095238Y-105321428D02*
X172000000Y-105226190D01*
X171904761Y-105035714D01*
X171904761Y-104559523D01*
X172000000Y-104369047D01*
X172095238Y-104273809D01*
X172285714Y-104178571D01*
X172476190Y-104178571D01*
X172761904Y-104273809D01*
X173904761Y-105416666D01*
X173904761Y-104178571D01*
G04 #@! TO.C,5*
X171904761Y-97273809D02*
X171904761Y-98226190D01*
X172857142Y-98321428D01*
X172761904Y-98226190D01*
X172666666Y-98035714D01*
X172666666Y-97559523D01*
X172761904Y-97369047D01*
X172857142Y-97273809D01*
X173047619Y-97178571D01*
X173523809Y-97178571D01*
X173714285Y-97273809D01*
X173809523Y-97369047D01*
X173904761Y-97559523D01*
X173904761Y-98035714D01*
X173809523Y-98226190D01*
X173714285Y-98321428D01*
G04 #@! TO.C,GND*
X172000000Y-92773809D02*
X171904761Y-92964285D01*
X171904761Y-93250000D01*
X172000000Y-93535714D01*
X172190476Y-93726190D01*
X172380952Y-93821428D01*
X172761904Y-93916666D01*
X173047619Y-93916666D01*
X173428571Y-93821428D01*
X173619047Y-93726190D01*
X173809523Y-93535714D01*
X173904761Y-93250000D01*
X173904761Y-93059523D01*
X173809523Y-92773809D01*
X173714285Y-92678571D01*
X173047619Y-92678571D01*
X173047619Y-93059523D01*
X173904761Y-91821428D02*
X171904761Y-91821428D01*
X173904761Y-90678571D01*
X171904761Y-90678571D01*
X173904761Y-89726190D02*
X171904761Y-89726190D01*
X171904761Y-89250000D01*
X172000000Y-88964285D01*
X172190476Y-88773809D01*
X172380952Y-88678571D01*
X172761904Y-88583333D01*
X173047619Y-88583333D01*
X173428571Y-88678571D01*
X173619047Y-88773809D01*
X173809523Y-88964285D01*
X173904761Y-89250000D01*
X173904761Y-89726190D01*
G04 #@! TD*
M02*
